<mxfile host="Electron" agent="Mozilla/5.0 (Windows NT 10.0; Win64; x64) AppleWebKit/537.36 (KHTML, like Gecko) draw.io/26.0.4 Chrome/128.0.6613.186 Electron/32.2.5 Safari/537.36" version="26.0.4">
  <diagram name="Seite-1" id="2_PFGbZ4jDWjoBrt2Cnf">
    <mxGraphModel dx="956" dy="563" grid="1" gridSize="10" guides="1" tooltips="1" connect="1" arrows="1" fold="1" page="1" pageScale="1" pageWidth="827" pageHeight="1169" math="0" shadow="0">
      <root>
        <mxCell id="0" />
        <mxCell id="1" parent="0" />
        <UserObject label="" link="https://upload.wikimedia.org/wikipedia/commons/thumb/7/7c/Go-home.svg/240px-Go-home.svg.png" id="VwH9SdVSL0BFMo1bXLVh-33">
          <mxCell style="rounded=0;whiteSpace=wrap;html=1;" parent="1" vertex="1">
            <mxGeometry x="150" y="440" width="480" height="370" as="geometry" />
          </mxCell>
        </UserObject>
        <mxCell id="FyN0dmnFIEV0YTmz_IIj-12" value="" style="shape=note;whiteSpace=wrap;html=1;backgroundOutline=1;darkOpacity=0.05;size=10;fillColor=#f5f5f5;gradientColor=#b3b3b3;strokeColor=#666666;" vertex="1" parent="1">
          <mxGeometry x="280" y="475" width="40" height="50" as="geometry" />
        </mxCell>
        <mxCell id="FyN0dmnFIEV0YTmz_IIj-11" value="" style="shape=note;whiteSpace=wrap;html=1;backgroundOutline=1;darkOpacity=0.05;size=10;fillColor=#f5f5f5;gradientColor=#b3b3b3;strokeColor=#666666;" vertex="1" parent="1">
          <mxGeometry x="280" y="595" width="40" height="50" as="geometry" />
        </mxCell>
        <mxCell id="VwH9SdVSL0BFMo1bXLVh-18" value="" style="rounded=0;whiteSpace=wrap;html=1;fillColor=#d5e8d4;gradientColor=#97d077;strokeColor=#82b366;" parent="1" vertex="1">
          <mxGeometry x="360" y="470" width="160" height="290" as="geometry" />
        </mxCell>
        <mxCell id="Grm8LHgIVp3oz6h8upT6-35" value="Document&lt;br&gt;Designer" style="shape=umlActor;verticalLabelPosition=bottom;verticalAlign=top;html=1;outlineConnect=0;" parent="1" vertex="1">
          <mxGeometry x="180" y="700" width="30" height="60" as="geometry" />
        </mxCell>
        <mxCell id="VwH9SdVSL0BFMo1bXLVh-19" value="&lt;b&gt;Translation&lt;/b&gt;&lt;div&gt;&lt;b style=&quot;background-color: transparent; color: light-dark(rgb(0, 0, 0), rgb(255, 255, 255));&quot;&gt;Tool&lt;/b&gt;&lt;/div&gt;" style="text;html=1;align=center;verticalAlign=middle;resizable=0;points=[];autosize=1;strokeColor=none;fillColor=none;" parent="1" vertex="1">
          <mxGeometry x="430" y="720" width="90" height="40" as="geometry" />
        </mxCell>
        <mxCell id="VwH9SdVSL0BFMo1bXLVh-31" value="" style="rounded=1;whiteSpace=wrap;html=1;fillColor=#dae8fc;gradientColor=#7ea6e0;strokeColor=#6c8ebf;" parent="1" vertex="1">
          <mxGeometry x="400" y="590" width="80" height="50" as="geometry" />
        </mxCell>
        <mxCell id="dMD69vR6-e3nc01jPf0l-13" style="edgeStyle=orthogonalEdgeStyle;rounded=0;orthogonalLoop=1;jettySize=auto;html=1;entryX=0.25;entryY=1;entryDx=0;entryDy=0;" parent="1" source="VwH9SdVSL0BFMo1bXLVh-35" target="VwH9SdVSL0BFMo1bXLVh-31" edge="1">
          <mxGeometry relative="1" as="geometry" />
        </mxCell>
        <mxCell id="VwH9SdVSL0BFMo1bXLVh-35" value="" style="shape=note;whiteSpace=wrap;html=1;backgroundOutline=1;darkOpacity=0.05;size=10;" parent="1" vertex="1">
          <mxGeometry x="280" y="710" width="40" height="50" as="geometry" />
        </mxCell>
        <mxCell id="VwH9SdVSL0BFMo1bXLVh-37" value="&lt;div&gt;Template&lt;/div&gt;" style="text;html=1;align=center;verticalAlign=middle;resizable=0;points=[];autosize=1;strokeColor=none;fillColor=none;" parent="1" vertex="1">
          <mxGeometry x="265" y="760" width="70" height="30" as="geometry" />
        </mxCell>
        <mxCell id="dMD69vR6-e3nc01jPf0l-2" value="Translator&lt;br&gt;de-DE" style="shape=umlActor;verticalLabelPosition=bottom;verticalAlign=top;html=1;outlineConnect=0;" parent="1" vertex="1">
          <mxGeometry x="180" y="580" width="30" height="60" as="geometry" />
        </mxCell>
        <mxCell id="dMD69vR6-e3nc01jPf0l-5" value="Translation&lt;br&gt;File: de-DE" style="text;html=1;align=center;verticalAlign=middle;resizable=0;points=[];autosize=1;strokeColor=none;fillColor=none;" parent="1" vertex="1">
          <mxGeometry x="260" y="640" width="80" height="40" as="geometry" />
        </mxCell>
        <mxCell id="dMD69vR6-e3nc01jPf0l-7" value="Translator&lt;br&gt;en-US" style="shape=umlActor;verticalLabelPosition=bottom;verticalAlign=top;html=1;outlineConnect=0;" parent="1" vertex="1">
          <mxGeometry x="180" y="460" width="30" height="60" as="geometry" />
        </mxCell>
        <mxCell id="dMD69vR6-e3nc01jPf0l-14" style="edgeStyle=orthogonalEdgeStyle;rounded=0;orthogonalLoop=1;jettySize=auto;html=1;entryX=0;entryY=0.5;entryDx=0;entryDy=0;" parent="1" target="VwH9SdVSL0BFMo1bXLVh-31" edge="1">
          <mxGeometry relative="1" as="geometry">
            <mxPoint x="320.0000000000001" y="615" as="sourcePoint" />
          </mxGeometry>
        </mxCell>
        <mxCell id="dMD69vR6-e3nc01jPf0l-15" style="edgeStyle=orthogonalEdgeStyle;rounded=0;orthogonalLoop=1;jettySize=auto;html=1;entryX=0.25;entryY=0;entryDx=0;entryDy=0;" parent="1" target="VwH9SdVSL0BFMo1bXLVh-31" edge="1">
          <mxGeometry relative="1" as="geometry">
            <mxPoint x="320.0000000000001" y="495.0000000000001" as="sourcePoint" />
          </mxGeometry>
        </mxCell>
        <mxCell id="dMD69vR6-e3nc01jPf0l-12" value="Translation&lt;br&gt;File: en-US" style="text;html=1;align=center;verticalAlign=middle;resizable=0;points=[];autosize=1;strokeColor=none;fillColor=none;" parent="1" vertex="1">
          <mxGeometry x="260" y="520" width="80" height="40" as="geometry" />
        </mxCell>
        <mxCell id="dMD69vR6-e3nc01jPf0l-16" value="Translated&lt;div&gt;Document&lt;/div&gt;" style="text;html=1;align=center;verticalAlign=middle;resizable=0;points=[];autosize=1;strokeColor=none;fillColor=none;" parent="1" vertex="1">
          <mxGeometry x="541.29" y="645" width="80" height="40" as="geometry" />
        </mxCell>
        <mxCell id="dMD69vR6-e3nc01jPf0l-21" value="Translated&lt;br&gt;Document" style="text;html=1;align=center;verticalAlign=middle;resizable=0;points=[];autosize=1;strokeColor=none;fillColor=none;" parent="1" vertex="1">
          <mxGeometry x="541.29" y="520" width="80" height="40" as="geometry" />
        </mxCell>
        <mxCell id="dMD69vR6-e3nc01jPf0l-30" value="" style="shape=image;verticalLabelPosition=bottom;labelBackgroundColor=default;verticalAlign=top;aspect=fixed;imageAspect=0;image=data:image/png,iVBORw0KGgoAAAANSUhEUgAAADAAAAAwCAYAAAEgBckRAAAAGXRFWHRTb2Z0d2FyZQBBZG9iZSBJbWFnZVJlYWR5ccllPAAADZBpVFh0WE1MOmNvbS5hZG9iZS54bXAAAAAAADw/eHBhY2tldCBiZWdpbj0i77u/IiBpZD0iVzVNME1wQ2VoaUh6cmVTek5UY3prYzlkIj8+Cjx4OnhtcG1ldGEgeG1sbnM6eD0iYWRvYmU6bnM6bWV0YS8iIHg6eG1wdGs9IkFkb2JlIFhNUCBDb3JlIDQuMi4yLWMwNjMgNTMuMzUyNjI0LCAyMDA4LzA3LzMwLTE4OjA1OjQxICAgICAgICAiPgogPHJkZjpSREYgeG1sbnM6cmRmPSJodHRwOi8vd3d3LnczLm9yZy8xOTk5LzAyLzIyLXJkZi1zeW50YXgtbnMjIj4KICA8cmRmOkRlc2NyaXB0aW9uIHJkZjphYm91dD0iIgogICAgeG1sbnM6ZGM9Imh0dHA6Ly9wdXJsLm9yZy9kYy9lbGVtZW50cy8xLjEvIgogICAgeG1sbnM6eG1wUmlnaHRzPSJodHRwOi8vbnMuYWRvYmUuY29tL3hhcC8xLjAvcmlnaHRzLyIKICAgIHhtbG5zOnBob3Rvc2hvcD0iaHR0cDovL25zLmFkb2JlLmNvbS9waG90b3Nob3AvMS4wLyIKICAgIHhtbG5zOklwdGM0eG1wQ29yZT0iaHR0cDovL2lwdGMub3JnL3N0ZC9JcHRjNHhtcENvcmUvMS4wL3htbG5zLyIKICAgeG1wUmlnaHRzOldlYlN0YXRlbWVudD0iaHR0cDovL2Jsb2cuYWRkaWN0ZWR0b2NvZmZlZS5kZSIKICAgcGhvdG9zaG9wOkF1dGhvcnNQb3NpdGlvbj0iIj4KICAgPGRjOnJpZ2h0cz4KICAgIDxyZGY6QWx0PgogICAgIDxyZGY6bGkgeG1sOmxhbmc9IngtZGVmYXVsdCI+wqkgICAgICAgICAgICYjeEE7IDIwMDkgYnkgT2xpdmVyIFR3YXJkb3dza2k8L3JkZjpsaT4KICAgIDwvcmRmOkFsdD4KICAgPC9kYzpyaWdodHM+CiAgIDxkYzpjcmVhdG9yPgogICAgPHJkZjpTZXE+CiAgICAgPHJkZjpsaT5PbGl2ZXIgVHdhcmRvd3NraTwvcmRmOmxpPgogICAgPC9yZGY6U2VxPgogICA8L2RjOmNyZWF0b3I+CiAgIDxkYzp0aXRsZT4KICAgIDxyZGY6QWx0PgogICAgIDxyZGY6bGkgeG1sOmxhbmc9IngtZGVmYXVsdCIvPgogICAgPC9yZGY6QWx0PgogICA8L2RjOnRpdGxlPgogICA8eG1wUmlnaHRzOlVzYWdlVGVybXM+CiAgICA8cmRmOkFsdD4KICAgICA8cmRmOmxpIHhtbDpsYW5nPSJ4LWRlZmF1bHQiLz4KICAgIDwvcmRmOkFsdD4KICAgPC94bXBSaWdodHM6VXNhZ2VUZXJtcz4KICAgPElwdGM0eG1wQ29yZTpDcmVhdG9yQ29udGFjdEluZm8KICAgIElwdGM0eG1wQ29yZTpDaUFkckV4dGFkcj0iIgogICAgSXB0YzR4bXBDb3JlOkNpQWRyQ2l0eT0iIgogICAgSXB0YzR4bXBDb3JlOkNpQWRyUmVnaW9uPSIiCiAgICBJcHRjNHhtcENvcmU6Q2lBZHJQY29kZT0iIgogICAgSXB0YzR4bXBDb3JlOkNpQWRyQ3RyeT0iIgogICAgSXB0YzR4bXBDb3JlOkNpVGVsV29yaz0iIgogICAgSXB0YzR4bXBDb3JlOkNpRW1haWxXb3JrPSIiCiAgICBJcHRjNHhtcENvcmU6Q2lVcmxXb3JrPSIiLz4KICA8L3JkZjpEZXNjcmlwdGlvbj4KIDwvcmRmOlJERj4KPC94OnhtcG1ldGE+CiAgICAgICAgICAgICAgICAgICAgICAgICAgICAgICAgICAgICAgICAgICAgICAgICAgICAgICAgICAgICAgICAgICAgICAgICAgICAgICAgICAgICAgICAgICAgICAgICAgICAKICAgICAgICAgICAgICAgICAgICAgICAgICAgICAgICAgICAgICAgICAgICAgICAgICAgICAgICAgICAgICAgICAgICAgICAgICAgICAgICAgICAgICAgICAgICAgICAgICAgIAogICAgICAgICAgICAgICAgICAgICAgICAgICAgICAgICAgICAgICAgICAgICAgICAgICAgICAgICAgICAgICAgICAgICAgICAgICAgICAgICAgICAgICAgICAgICAgICAgICAgCiAgICAgICAgICAgICAgICAgICAgICAgICAgICAgICAgICAgICAgICAgICAgICAgICAgICAgICAgICAgICAgICAgICAgICAgICAgICAgICAgICAgICAgICAgICAgICAgICAgICAKICAgICAgICAgICAgICAgICAgICAgICAgICAgICAgICAgICAgICAgICAgICAgICAgICAgICAgICAgICAgICAgICAgICAgICAgICAgICAgICAgICAgICAgICAgICAgICAgICAgIAogICAgICAgICAgICAgICAgICAgICAgICAgICAgICAgICAgICAgICAgICAgICAgICAgICAgICAgICAgICAgICAgICAgICAgICAgICAgICAgICAgICAgICAgICAgICAgICAgICAgCiAgICAgICAgICAgICAgICAgICAgICAgICAgICAgICAgICAgICAgICAgICAgICAgICAgICAgICAgICAgICAgICAgICAgICAgICAgICAgICAgICAgICAgICAgICAgICAgICAgICAKICAgICAgICAgICAgICAgICAgICAgICAgICAgICAgICAgICAgICAgICAgICAgICAgICAgICAgICAgICAgICAgICAgICAgICAgICAgICAgICAgICAgICAgICAgICAgICAgICAgIAogICAgICAgICAgICAgICAgICAgICAgICAgICAgICAgICAgICAgICAgICAgICAgICAgICAgICAgICAgICAgICAgICAgICAgICAgICAgICAgICAgICAgICAgICAgICAgICAgICAgCiAgICAgICAgICAgICAgICAgICAgICAgICAgICAgICAgICAgICAgICAgICAgICAgICAgICAgICAgICAgICAgICAgICAgICAgICAgICAgICAgICAgICAgICAgICAgICAgICAgICAKICAgICAgICAgICAgICAgICAgICAgICAgICAgICAgICAgICAgICAgICAgICAgICAgICAgICAgICAgICAgICAgICAgICAgICAgICAgICAgICAgICAgICAgICAgICAgICAgICAgIAogICAgICAgICAgICAgICAgICAgICAgICAgICAgICAgICAgICAgICAgICAgICAgICAgICAgICAgICAgICAgICAgICAgICAgICAgICAgICAgICAgICAgICAgICAgICAgICAgICAgCiAgICAgICAgICAgICAgICAgICAgICAgICAgICAgICAgICAgICAgICAgICAgICAgICAgICAgICAgICAgICAgICAgICAgICAgICAgICAgICAgICAgICAgICAgICAgICAgICAgICAKICAgICAgICAgICAgICAgICAgICAgICAgICAgICAgICAgICAgICAgICAgICAgICAgICAgICAgICAgICAgICAgICAgICAgICAgICAgICAgICAgICAgICAgICAgICAgICAgICAgIAogICAgICAgICAgICAgICAgICAgICAgICAgICAgICAgICAgICAgICAgICAgICAgICAgICAgICAgICAgICAgICAgICAgICAgICAgICAgICAgICAgICAgICAgICAgICAgICAgICAgCiAgICAgICAgICAgICAgICAgICAgICAgICAgICAgICAgICAgICAgICAgICAgICAgICAgICAgICAgICAgICAgICAgICAgICAgICAgICAgICAgICAgICAgICAgICAgICAgICAgICAKICAgICAgICAgICAgICAgICAgICAgICAgICAgICAgICAgICAgICAgICAgICAgICAgICAgICAgICAgICAgICAgICAgICAgICAgICAgICAgICAgICAgICAgICAgICAgICAgICAgIAogICAgICAgICAgICAgICAgICAgICAgICAgICAgICAgICAgICAgICAgICAgICAgICAgICAgICAgICAgICAgICAgICAgICAgICAgICAgICAgICAgICAgICAgICAgICAgICAgICAgCiAgICAgICAgICAgICAgICAgICAgICAgICAgICAgICAgICAgICAgICAgICAgICAgICAgICAgICAgICAgICAgICAgICAgICAgICAgICAgICAgICAgICAgICAgICAgICAgICAgICAKICAgICAgICAgICAgICAgICAgICAgICAgICAgICAgICAgICAgICAgICAgICAgICAgICAgICAgICAgICAgICAgICAgICAgICAgICAgICAgICAgICAgICAgICAgICAgICAgICAgIAogICAgICAgICAgICAgICAgICAgICAgICAgICAKPD94cGFja2V0IGVuZD0idyI/PgiL5zQAABAASURBVHjabI2xDYAgFETvG1o7iLEhJA5gaCld0ilkEiawszOGBiygQ9HYedXLXV6OSin4C/vAGFNyzlBKwVpLVI1aCiHAOYf3HlLK11hSQn+XGIbHPpx7h21ukLsVbXsixh0hdKDv3Lnpxg2MjdDa0iWAGHG5igEkMW3atP8GBgb/jYyM/nsHhv0HibEwsXEeMDc2YNDT0wMrvHXrFohiZHmQnmovde8uA4uUFEg7w+/Xrxn82fl/MXROYHA/f17x/4sX/mB8/rwyyChGsB11rS7/T55U+3/qlO7/8ASGVyAxgAACSyBjRlaOAylZOf8XL17839M/9D8LO489ijzMG8XFxf/379/PwM7ODgwAXgZWVlaG379/M3z+/JmBkZGRgYVbgOHQ7m2M4JDaGh79v/jWNYZWYPhySEoyMAgJMTBwcDAwACOB4e1bhh/PnzN8+PaJoYKN+zoTOGjfv2dgZGIC+w4poBgY/v2DcxlZWRhEGRmuwZ3UO8nrv435HaCT/gEN52dgZmZl+Pv3N9CSj0CniTL0TjvxesX8/2IoHgYCDiYmJv34DIaHJo4c/9PzGA4zMzOrI6sBCCDccYcDMKHxGeU09P/39U/8X9/c8p+JnfcHuga4DSDJnPRE9iNHjsCcBw7iwMBAhur6Fr8/Pz5vhmtgZuXc4eps7/4aGP98fHxghSDw8+dPhi9fvjD4+Pgw1NfXg1zzH6whOTkZmCbOA4NfCJzOubi4wBq+fv0KjIa3wFT8iUFUWo5h6/o1kIjrBwr8YWNjEOLnZ2AQEGAAWgNxMDC2gWHK8A4Y278FeBHZ6+u7dwzcIEkWIBeokQFqAzimgeIsLKwMf4AZCq7hPzAZ/AFaz/DnD8jhDAzfvjFAPQG24c/fPwxMIJthGl61ygMNO8vAz/8TmPC+AT3NDVX/BZj4XgA9/p0hp2Lh/5MMMyDxcPHaZj5mZn2gxCtgFn3C8P79YzD++PEx0OMfgQbYMpzc+50ZJR4mTGU0dbCOO/Xz50Vgcv4CxCB5YWB6MmKwsJgC4vyD516ktCSbkMLQ7BbI+DMgmuETCwuLOUgXshqAAKxVTUgbQRR+u6u7WTYVciiEehCtYCqFUA+WghiKVgJVavBW2kPppUhJC8WDtPRU6M+lh1LBVgqC90KLUiQHT6ngpQgiKO4pHgtCTLLZzcz2eyOJBmKr0IFHksnO98177/venltL511tp4qy3f46MnZrMnM7TYVCgVzXVQ1n10ajUYrH42oiOo5D2WfPxeXertju1mbxVK02gKHZt69eWrlcjliKvGAhFSiBGgd8poYWSxhYCAFpmJRKpWh716WV1dVrQfHgVysCLT2Rkb1dnZTP5xWQbdswd0R9MgiT1AkY2Pd9qkBgZeiIM+PnkskkfZz/siP9UqLhBV7TfVfD10PXqQhPRABkowwcOkqAk2y9I6nzKOLRA8C6SAXCg8nKEG8Ie+j9/fTj0+L9e5WDpYb/n44MU3V/n3TcrM20yASgzsBsCxApP8Vix8G/mRz/G8iSnzdRwhBEIV5Ky1IsNA2YQ58tIo6G5b9WC+XVdzTd4KaRQ2G5qQcZ60J1bmrClHt7ZGHPxu0iuLnBGZyxRBWYX8DDFZRIFkt2z+d5r0lFN0Zt+eFNWvP9TWB5aCxSNzsQDhSEkunHKpKyBiV5aHRJRRDUsN+JTJL0c2Pu5pPpcK2lTN+918ajzuT3wYEAh1yAHiJjTFFDw/d2EOgAkiAQCAPBVrqIBBOUfbEYrH0LrBMVo785WXs8o60nuu8MDg9dwm1/A7yqwDEUQeZQ1e+g7OxC+OCud+XRw3DnJPBZCP7L+iMA8dUW2lQWRfdN0qSpVduqEdG0GNEKFQXRgCJWq9DGOIjzI6igMD7AB6j4IwzMh4KIZcAHoh+DQsEvxUdRYtVSCyNFGRGh+MAHhU60rWLrI81Nc+9xrdN7M4l1nP7IXNice+45Z+999tlnr3V/uAGP/ODH991Bf3CpbfhaGmL1gYXgUTOqKuXtu/fy+PlLSbS2yd8vnt2xM4PLvxX774aofPLU0oH+T/3HGg95CZ1dXV2STCZ1zSEPKkOuRyIRCYfDcrH5uty60dJsDw2uGdUhe/3B1bFYvHnJogXS0dGhFbOQ6cm4A7mFeGepjkajUl1dLdt37TNt82PwayMFBnyBknkN8fjD2ZEqaW9v14rBfnSZpueuAVZSt1xzPBQKSV1dnew/8NsIIwUGlq6MqVp4nkgktAIqzi/V7PPhmFuuScX50EhNTY00/n7ihjWUahiRRUCwJ3NmTRfyTi6kUiIXaQxbciC2FHJSd4xh4s56e3v1uvp4rD5fry8HNvFVmvi5B0nPqcAFHH7zOJWWoaEy7orf2Oc68iueh8df0mpnUstyBpoCpevPbdkkVmenKGx9DJUGhjFB4wEJMSkTQ8SQkhFBufBM0DfRT+O80kC3UjLsyMzagh10KvXrShAyll0/8RfKfFToKmZLcc5AG3BJNs8KjnhRug28E3Di8+cW3uRXhme6InljVnDbjmgviQEUGnLF7dMghGHifOaYOTAgsyrKCm9yGsP0xpOX45IvNESPqdj9HWA/b47hiI0QF3Ne/g4mifXRIJ46h6iowFVEwSItvHAMD9/dOY4o9x1G3n5OFRqYbVutHgI7jFhYSC+Y51oZBRmTg0gK+xRnnPMpdFDB+46u7kIDsVj9hhTyWSEdbXIecmRXEVteJvJp8mi35TfHYBbzuEZ5Aam4L7fb7pgFZ1Bz9bK5sC6oTh1ZYVgWfjJ9Q/pvKhAgHpci9EF8I4p5dRVg3mezJjY1qPHYNPthj2gXwrpyWRz9tHZEuV7/c3q5rcIA6l4s7sbCYYr9D8AXOQZE47FlZWAgpSWTSWPeGDhSKdv3nVF3b6rEN2vRus1Gz4E9m0Pp9CMo74PXBnYQQFuiGQVl2EA2j1UMauWGUSVtfxoyLdwzft3avz78W7k2an8qMo8d3FhkmsTwHig1NaPgzycZxTDvonIbrQ+GxsKBSrn3wAOeemXN3t3q6n8BjoGdvNm9dVsoWPwaoeiDog8wlOUVdvICKa1AGb3lCEtYLl1LyvhxLdE9O9X9UYP+6T+M6rPnix8fP7zFCPgH4CmyR4acXfDQKxCSpDx9cfneyaNqUe4XaLQGcCsnoFpORFv2y45sY887mdedLB5bUWZmpkxWbzyWNDWd9V3IkjCJ9EFP+n+hLV8E6M7aYqMqwvDMOXsp2263AlJroQi0oNWEpEK4WYFWBEpbBBJJvBA1MRqQEHzQxCd8UDHxFgjqA9F4iQ9iEEqhVFrClgS0YqikkLWFUF0FKbHd7rJ2b2eP/zdnphxwFxYJmrjJn3N2s2fm/2b+mfm+79zyDv5TWpTrIAiryZ3/RDptrqC5m0JfS+lXOqwc+fL8IOXDaPcwf6PqO6Np/OtUPPq5jRuY/+oM5BWOnpqIxT5j3DWzoXEpr541g40efZuwQyAJwTMUqbFrVJzuOOVhnwwMhNjhzmOsadde2umT37vy3E/GwgO9NwomVwDcWVA0w0gkm6sXzB/38IJqWrZeSmJAcJXz588LWwaJI+krfATJ1HCm4h7UBAELs6SkRJAp2DzhcITta/ezw4f8/brLUZ+8FDqWC5jrAgBPNblrZ0PjMuei+XNFwoFAQPBVJHytZDNZoPb+8D/MDAgeSHR5ebkA1drewXY37U1qPL0qFYs03zBzH2Hvg6HTtQ/VFD9AJQLHsquriw0RI1Hl4ZBsRZE7VSpIXhFAJUgVGVQOBELZHAo82gM7raqqEqzUf7STtX3TfmFKxeSK3pMnLuUs/yxN4z607rk1PJ9q9gzJcsgPpRBUok7htTlGOLe65zaGdPXoI2nrNE+NBNpVgBQQSBu441FaU1vf/9jUubEwGYv4c5A2nsVUMi0b1j7N0XBfX5+ocaUyEFiEqpYzgVAldDUANQMqcSSNPhD4jk1AAUF7xcXFoqzQzjtbt5saN+qopFqzKpuTjY+4N7W2D21+9il30Z9R5gyFWDgYZBqYMyQUEobKUYkTEFDNEWKMe5SO4rD2daAopqKfYIOSgpoAQKQtCeKGGaFrCmDh1kycyBI+HxvK87CXPtwef3PNY0UwVzICeMs56ivPwgWrVpaVsgJqZLCnh2k0hQ6MrkzeidGncNiZvEreHnbSrfiz4sq25MWV+lIgBJDhGEumqKywXmjr9VVUsCi1ueNskMX8/i9fjEdXZzQQAppeM7tsvNAmCbwgoA5V2QCELktFt4+6XZYo/QPBpe4zRQYJg5nU1abgcor+OCx4Iy1yAc2eO6mMnWJ8UdaT+CLTvWOoAzM0yBJSR6mdhKNBgIFhitG1l4rSWAiAs39XvhtGH7OBq1KQ+B3/wW/29mlmwOrw3SR2nYBGIJBjaUNBjlktnDzSJnF64Irpv9lPrid9JvdSyjAAwQBCInsYEswCYJKZPts7MMQ4zYIhRx0NQAdCk+OaxqKza8EMi1Jc7TJOvq0YkXkq7M+jD1v7GHnRN6QirlSWvX8MsomUY1YA93D2RktXN9NhFNN04SGTHjaUpyK3vhQknj1RpTORKEoPkvDqsP+uJKV6Fu3hLJAa1UjSNovRRwlR6cDU1mkn2nP8BLtPd752rXOAv/AyPzztruXz5s3yUtK/CEnDeUi4sXhBBIGm63m09txSarrF79BUcGqhDJUl/PeDTDm4hnj5Z0VCXFOpYSFVDSMmzwj830dtjaX2S1nH0SHW07fbv3WzWWNXNxk12TPreGB6ZcPU6jk+aixIjfULEJpmygPLLYG4ROIAYKlOSztD7mYDcBlEQlKKhASCxK17y6L2Ulu300DdyTqOhNjx7qaej7aZlTL561vVG1/h+wvzaxevrJ9MMx6kBvup8wFq1BBh0QmMvGXCA4wF4jIASypcpvsWCEMCSInkLSCKSoA30TbLCqm9Ykq+lO1sPs1CkbbWd1836zLpymt67Vs+4NP3HuDfLl/S4J4z0ydmIpWCSr5EiQ5TkobcRZ0ycU0a/ly+12Mj5r8FwJCUIilnwhSlYqlsOhNYAT0/hhIvZkc6B9mulqb4skXm7PXPmz9mY6S56AH+9hZev/+gtqOuts5dO7+U1lw/dQ4lHhbmGF4i0GoUgKyk02J/UD6D9UHyutw3NJkwURE+iqKABqGIYhxr9/9MumBffGmN+ejG9WZzNjX/TxQZ/+SLCQXdgV8//a7T2VC/uEZfUltBICICiGkO03VYJpoQVwuMctWcYqSx6PG2hHMPrR0vXb2spa2H7Tlw0Jh1f7JlZlXV46tX/BDJVZndjKjn723jD54Jsle7T2lzxt9xt+veaRNYybhCUlke5i1wsiLfKPHHoXCMhSMJdvFilJ27EGEnfwqyc78HEpWV6aPlZWzThrVmh0zYvOWamOobqwxi3SMcHBzgqAUMqxUOGZrtnEnLUPZSQkZc1CCdEhRwPaPZ/Jn/ra3yF51y6wvXKCGBAAAAAElFTkSuQmCC;" parent="1" vertex="1">
          <mxGeometry x="290" y="610" width="20" height="20" as="geometry" />
        </mxCell>
        <mxCell id="dMD69vR6-e3nc01jPf0l-31" value="" style="shape=image;verticalLabelPosition=bottom;labelBackgroundColor=default;verticalAlign=top;aspect=fixed;imageAspect=0;image=data:image/png,iVBORw0KGgoAAAANSUhEUgAAADAAAAAwCAYAAAEgBckRAAAAGXRFWHRTb2Z0d2FyZQBBZG9iZSBJbWFnZVJlYWR5ccllPAAADZBpVFh0WE1MOmNvbS5hZG9iZS54bXAAAAAAADw/eHBhY2tldCBiZWdpbj0i77u/IiBpZD0iVzVNME1wQ2VoaUh6cmVTek5UY3prYzlkIj8+Cjx4OnhtcG1ldGEgeG1sbnM6eD0iYWRvYmU6bnM6bWV0YS8iIHg6eG1wdGs9IkFkb2JlIFhNUCBDb3JlIDQuMi4yLWMwNjMgNTMuMzUyNjI0LCAyMDA4LzA3LzMwLTE4OjA1OjQxICAgICAgICAiPgogPHJkZjpSREYgeG1sbnM6cmRmPSJodHRwOi8vd3d3LnczLm9yZy8xOTk5LzAyLzIyLXJkZi1zeW50YXgtbnMjIj4KICA8cmRmOkRlc2NyaXB0aW9uIHJkZjphYm91dD0iIgogICAgeG1sbnM6ZGM9Imh0dHA6Ly9wdXJsLm9yZy9kYy9lbGVtZW50cy8xLjEvIgogICAgeG1sbnM6eG1wUmlnaHRzPSJodHRwOi8vbnMuYWRvYmUuY29tL3hhcC8xLjAvcmlnaHRzLyIKICAgIHhtbG5zOnBob3Rvc2hvcD0iaHR0cDovL25zLmFkb2JlLmNvbS9waG90b3Nob3AvMS4wLyIKICAgIHhtbG5zOklwdGM0eG1wQ29yZT0iaHR0cDovL2lwdGMub3JnL3N0ZC9JcHRjNHhtcENvcmUvMS4wL3htbG5zLyIKICAgeG1wUmlnaHRzOldlYlN0YXRlbWVudD0iaHR0cDovL2Jsb2cuYWRkaWN0ZWR0b2NvZmZlZS5kZSIKICAgcGhvdG9zaG9wOkF1dGhvcnNQb3NpdGlvbj0iIj4KICAgPGRjOnJpZ2h0cz4KICAgIDxyZGY6QWx0PgogICAgIDxyZGY6bGkgeG1sOmxhbmc9IngtZGVmYXVsdCI+wqkgICAgICAgICAgICYjeEE7IDIwMDkgYnkgT2xpdmVyIFR3YXJkb3dza2k8L3JkZjpsaT4KICAgIDwvcmRmOkFsdD4KICAgPC9kYzpyaWdodHM+CiAgIDxkYzpjcmVhdG9yPgogICAgPHJkZjpTZXE+CiAgICAgPHJkZjpsaT5PbGl2ZXIgVHdhcmRvd3NraTwvcmRmOmxpPgogICAgPC9yZGY6U2VxPgogICA8L2RjOmNyZWF0b3I+CiAgIDxkYzp0aXRsZT4KICAgIDxyZGY6QWx0PgogICAgIDxyZGY6bGkgeG1sOmxhbmc9IngtZGVmYXVsdCIvPgogICAgPC9yZGY6QWx0PgogICA8L2RjOnRpdGxlPgogICA8eG1wUmlnaHRzOlVzYWdlVGVybXM+CiAgICA8cmRmOkFsdD4KICAgICA8cmRmOmxpIHhtbDpsYW5nPSJ4LWRlZmF1bHQiLz4KICAgIDwvcmRmOkFsdD4KICAgPC94bXBSaWdodHM6VXNhZ2VUZXJtcz4KICAgPElwdGM0eG1wQ29yZTpDcmVhdG9yQ29udGFjdEluZm8KICAgIElwdGM0eG1wQ29yZTpDaUFkckV4dGFkcj0iIgogICAgSXB0YzR4bXBDb3JlOkNpQWRyQ2l0eT0iIgogICAgSXB0YzR4bXBDb3JlOkNpQWRyUmVnaW9uPSIiCiAgICBJcHRjNHhtcENvcmU6Q2lBZHJQY29kZT0iIgogICAgSXB0YzR4bXBDb3JlOkNpQWRyQ3RyeT0iIgogICAgSXB0YzR4bXBDb3JlOkNpVGVsV29yaz0iIgogICAgSXB0YzR4bXBDb3JlOkNpRW1haWxXb3JrPSIiCiAgICBJcHRjNHhtcENvcmU6Q2lVcmxXb3JrPSIiLz4KICA8L3JkZjpEZXNjcmlwdGlvbj4KIDwvcmRmOlJERj4KPC94OnhtcG1ldGE+CiAgICAgICAgICAgICAgICAgICAgICAgICAgICAgICAgICAgICAgICAgICAgICAgICAgICAgICAgICAgICAgICAgICAgICAgICAgICAgICAgICAgICAgICAgICAgICAgICAgICAKICAgICAgICAgICAgICAgICAgICAgICAgICAgICAgICAgICAgICAgICAgICAgICAgICAgICAgICAgICAgICAgICAgICAgICAgICAgICAgICAgICAgICAgICAgICAgICAgICAgIAogICAgICAgICAgICAgICAgICAgICAgICAgICAgICAgICAgICAgICAgICAgICAgICAgICAgICAgICAgICAgICAgICAgICAgICAgICAgICAgICAgICAgICAgICAgICAgICAgICAgCiAgICAgICAgICAgICAgICAgICAgICAgICAgICAgICAgICAgICAgICAgICAgICAgICAgICAgICAgICAgICAgICAgICAgICAgICAgICAgICAgICAgICAgICAgICAgICAgICAgICAKICAgICAgICAgICAgICAgICAgICAgICAgICAgICAgICAgICAgICAgICAgICAgICAgICAgICAgICAgICAgICAgICAgICAgICAgICAgICAgICAgICAgICAgICAgICAgICAgICAgIAogICAgICAgICAgICAgICAgICAgICAgICAgICAgICAgICAgICAgICAgICAgICAgICAgICAgICAgICAgICAgICAgICAgICAgICAgICAgICAgICAgICAgICAgICAgICAgICAgICAgCiAgICAgICAgICAgICAgICAgICAgICAgICAgICAgICAgICAgICAgICAgICAgICAgICAgICAgICAgICAgICAgICAgICAgICAgICAgICAgICAgICAgICAgICAgICAgICAgICAgICAKICAgICAgICAgICAgICAgICAgICAgICAgICAgICAgICAgICAgICAgICAgICAgICAgICAgICAgICAgICAgICAgICAgICAgICAgICAgICAgICAgICAgICAgICAgICAgICAgICAgIAogICAgICAgICAgICAgICAgICAgICAgICAgICAgICAgICAgICAgICAgICAgICAgICAgICAgICAgICAgICAgICAgICAgICAgICAgICAgICAgICAgICAgICAgICAgICAgICAgICAgCiAgICAgICAgICAgICAgICAgICAgICAgICAgICAgICAgICAgICAgICAgICAgICAgICAgICAgICAgICAgICAgICAgICAgICAgICAgICAgICAgICAgICAgICAgICAgICAgICAgICAKICAgICAgICAgICAgICAgICAgICAgICAgICAgICAgICAgICAgICAgICAgICAgICAgICAgICAgICAgICAgICAgICAgICAgICAgICAgICAgICAgICAgICAgICAgICAgICAgICAgIAogICAgICAgICAgICAgICAgICAgICAgICAgICAgICAgICAgICAgICAgICAgICAgICAgICAgICAgICAgICAgICAgICAgICAgICAgICAgICAgICAgICAgICAgICAgICAgICAgICAgCiAgICAgICAgICAgICAgICAgICAgICAgICAgICAgICAgICAgICAgICAgICAgICAgICAgICAgICAgICAgICAgICAgICAgICAgICAgICAgICAgICAgICAgICAgICAgICAgICAgICAKICAgICAgICAgICAgICAgICAgICAgICAgICAgICAgICAgICAgICAgICAgICAgICAgICAgICAgICAgICAgICAgICAgICAgICAgICAgICAgICAgICAgICAgICAgICAgICAgICAgIAogICAgICAgICAgICAgICAgICAgICAgICAgICAgICAgICAgICAgICAgICAgICAgICAgICAgICAgICAgICAgICAgICAgICAgICAgICAgICAgICAgICAgICAgICAgICAgICAgICAgCiAgICAgICAgICAgICAgICAgICAgICAgICAgICAgICAgICAgICAgICAgICAgICAgICAgICAgICAgICAgICAgICAgICAgICAgICAgICAgICAgICAgICAgICAgICAgICAgICAgICAKICAgICAgICAgICAgICAgICAgICAgICAgICAgICAgICAgICAgICAgICAgICAgICAgICAgICAgICAgICAgICAgICAgICAgICAgICAgICAgICAgICAgICAgICAgICAgICAgICAgIAogICAgICAgICAgICAgICAgICAgICAgICAgICAgICAgICAgICAgICAgICAgICAgICAgICAgICAgICAgICAgICAgICAgICAgICAgICAgICAgICAgICAgICAgICAgICAgICAgICAgCiAgICAgICAgICAgICAgICAgICAgICAgICAgICAgICAgICAgICAgICAgICAgICAgICAgICAgICAgICAgICAgICAgICAgICAgICAgICAgICAgICAgICAgICAgICAgICAgICAgICAKICAgICAgICAgICAgICAgICAgICAgICAgICAgICAgICAgICAgICAgICAgICAgICAgICAgICAgICAgICAgICAgICAgICAgICAgICAgICAgICAgICAgICAgICAgICAgICAgICAgIAogICAgICAgICAgICAgICAgICAgICAgICAgICAKPD94cGFja2V0IGVuZD0idyI/PgiL5zQAABAASURBVHjabI2xDYAgFETvG1o7iLEhJA5gaCld0ilkEiawszOGBiygQ9HYedXLXV6OSin4C/vAGFNyzlBKwVpLVI1aCiHAOYf3HlLK11hSQn+XGIbHPpx7h21ukLsVbXsixh0hdKDv3Lnpxg2MjdDa0iWAGHG5igEkMW3atP8GBgb/jYyM/nsHhv0HibEwsXEeMDc2YNDT0wMrvHXrFohiZHmQnmovde8uA4uUFEg7w+/Xrxn82fl/MXROYHA/f17x/4sX/mB8/rwyyChGsB11rS7/T55U+3/qlO7/8ASGVyAxgAACSyBjRlaOAylZOf8XL17839M/9D8LO489ijzMG8XFxf/379/PwM7ODgwAXgZWVlaG379/M3z+/JmBkZGRgYVbgOHQ7m2M4JDaGh79v/jWNYZWYPhySEoyMAgJMTBwcDAwACOB4e1bhh/PnzN8+PaJoYKN+zoTOGjfv2dgZGIC+w4poBgY/v2DcxlZWRhEGRmuwZ3UO8nrv435HaCT/gEN52dgZmZl+Pv3N9CSj0CniTL0TjvxesX8/2IoHgYCDiYmJv34DIaHJo4c/9PzGA4zMzOrI6sBCCDccYcDMKHxGeU09P/39U/8X9/c8p+JnfcHuga4DSDJnPRE9iNHjsCcBw7iwMBAhur6Fr8/Pz5vhmtgZuXc4eps7/4aGP98fHxghSDw8+dPhi9fvjD4+Pgw1NfXg1zzH6whOTkZmCbOA4NfCJzOubi4wBq+fv0KjIa3wFT8iUFUWo5h6/o1kIjrBwr8YWNjEOLnZ2AQEGAAWgNxMDC2gWHK8A4Y278FeBHZ6+u7dwzcIEkWIBeokQFqAzimgeIsLKwMf4AZCq7hPzAZ/AFaz/DnD8jhDAzfvjFAPQG24c/fPwxMIJthGl61ygMNO8vAz/8TmPC+AT3NDVX/BZj4XgA9/p0hp2Lh/5MMMyDxcPHaZj5mZn2gxCtgFn3C8P79YzD++PEx0OMfgQbYMpzc+50ZJR4mTGU0dbCOO/Xz50Vgcv4CxCB5YWB6MmKwsJgC4vyD516ktCSbkMLQ7BbI+DMgmuETCwuLOUgXshqAAKxVTUgbQRR+u6u7WTYVciiEehCtYCqFUA+WghiKVgJVavBW2kPppUhJC8WDtPRU6M+lh1LBVgqC90KLUiQHT6ngpQgiKO4pHgtCTLLZzcz2eyOJBmKr0IFHksnO98177/venltL511tp4qy3f46MnZrMnM7TYVCgVzXVQ1n10ajUYrH42oiOo5D2WfPxeXertju1mbxVK02gKHZt69eWrlcjliKvGAhFSiBGgd8poYWSxhYCAFpmJRKpWh716WV1dVrQfHgVysCLT2Rkb1dnZTP5xWQbdswd0R9MgiT1AkY2Pd9qkBgZeiIM+PnkskkfZz/siP9UqLhBV7TfVfD10PXqQhPRABkowwcOkqAk2y9I6nzKOLRA8C6SAXCg8nKEG8Ie+j9/fTj0+L9e5WDpYb/n44MU3V/n3TcrM20yASgzsBsCxApP8Vix8G/mRz/G8iSnzdRwhBEIV5Ky1IsNA2YQ58tIo6G5b9WC+XVdzTd4KaRQ2G5qQcZ60J1bmrClHt7ZGHPxu0iuLnBGZyxRBWYX8DDFZRIFkt2z+d5r0lFN0Zt+eFNWvP9TWB5aCxSNzsQDhSEkunHKpKyBiV5aHRJRRDUsN+JTJL0c2Pu5pPpcK2lTN+918ajzuT3wYEAh1yAHiJjTFFDw/d2EOgAkiAQCAPBVrqIBBOUfbEYrH0LrBMVo785WXs8o60nuu8MDg9dwm1/A7yqwDEUQeZQ1e+g7OxC+OCud+XRw3DnJPBZCP7L+iMA8dUW2lQWRfdN0qSpVduqEdG0GNEKFQXRgCJWq9DGOIjzI6igMD7AB6j4IwzMh4KIZcAHoh+DQsEvxUdRYtVSCyNFGRGh+MAHhU60rWLrI81Nc+9xrdN7M4l1nP7IXNice+45Z+999tlnr3V/uAGP/ODH991Bf3CpbfhaGmL1gYXgUTOqKuXtu/fy+PlLSbS2yd8vnt2xM4PLvxX774aofPLU0oH+T/3HGg95CZ1dXV2STCZ1zSEPKkOuRyIRCYfDcrH5uty60dJsDw2uGdUhe/3B1bFYvHnJogXS0dGhFbOQ6cm4A7mFeGepjkajUl1dLdt37TNt82PwayMFBnyBknkN8fjD2ZEqaW9v14rBfnSZpueuAVZSt1xzPBQKSV1dnew/8NsIIwUGlq6MqVp4nkgktAIqzi/V7PPhmFuuScX50EhNTY00/n7ihjWUahiRRUCwJ3NmTRfyTi6kUiIXaQxbciC2FHJSd4xh4s56e3v1uvp4rD5fry8HNvFVmvi5B0nPqcAFHH7zOJWWoaEy7orf2Oc68iueh8df0mpnUstyBpoCpevPbdkkVmenKGx9DJUGhjFB4wEJMSkTQ8SQkhFBufBM0DfRT+O80kC3UjLsyMzagh10KvXrShAyll0/8RfKfFToKmZLcc5AG3BJNs8KjnhRug28E3Di8+cW3uRXhme6InljVnDbjmgviQEUGnLF7dMghGHifOaYOTAgsyrKCm9yGsP0xpOX45IvNESPqdj9HWA/b47hiI0QF3Ne/g4mifXRIJ46h6iowFVEwSItvHAMD9/dOY4o9x1G3n5OFRqYbVutHgI7jFhYSC+Y51oZBRmTg0gK+xRnnPMpdFDB+46u7kIDsVj9hhTyWSEdbXIecmRXEVteJvJp8mi35TfHYBbzuEZ5Aam4L7fb7pgFZ1Bz9bK5sC6oTh1ZYVgWfjJ9Q/pvKhAgHpci9EF8I4p5dRVg3mezJjY1qPHYNPthj2gXwrpyWRz9tHZEuV7/c3q5rcIA6l4s7sbCYYr9D8AXOQZE47FlZWAgpSWTSWPeGDhSKdv3nVF3b6rEN2vRus1Gz4E9m0Pp9CMo74PXBnYQQFuiGQVl2EA2j1UMauWGUSVtfxoyLdwzft3avz78W7k2an8qMo8d3FhkmsTwHig1NaPgzycZxTDvonIbrQ+GxsKBSrn3wAOeemXN3t3q6n8BjoGdvNm9dVsoWPwaoeiDog8wlOUVdvICKa1AGb3lCEtYLl1LyvhxLdE9O9X9UYP+6T+M6rPnix8fP7zFCPgH4CmyR4acXfDQKxCSpDx9cfneyaNqUe4XaLQGcCsnoFpORFv2y45sY887mdedLB5bUWZmpkxWbzyWNDWd9V3IkjCJ9EFP+n+hLV8E6M7aYqMqwvDMOXsp2263AlJroQi0oNWEpEK4WYFWBEpbBBJJvBA1MRqQEHzQxCd8UDHxFgjqA9F4iQ9iEEqhVFrClgS0YqikkLWFUF0FKbHd7rJ2b2eP/zdnphxwFxYJmrjJn3N2s2fm/2b+mfm+79zyDv5TWpTrIAiryZ3/RDptrqC5m0JfS+lXOqwc+fL8IOXDaPcwf6PqO6Np/OtUPPq5jRuY/+oM5BWOnpqIxT5j3DWzoXEpr541g40efZuwQyAJwTMUqbFrVJzuOOVhnwwMhNjhzmOsadde2umT37vy3E/GwgO9NwomVwDcWVA0w0gkm6sXzB/38IJqWrZeSmJAcJXz588LWwaJI+krfATJ1HCm4h7UBAELs6SkRJAp2DzhcITta/ezw4f8/brLUZ+8FDqWC5jrAgBPNblrZ0PjMuei+XNFwoFAQPBVJHytZDNZoPb+8D/MDAgeSHR5ebkA1drewXY37U1qPL0qFYs03zBzH2Hvg6HTtQ/VFD9AJQLHsquriw0RI1Hl4ZBsRZE7VSpIXhFAJUgVGVQOBELZHAo82gM7raqqEqzUf7STtX3TfmFKxeSK3pMnLuUs/yxN4z607rk1PJ9q9gzJcsgPpRBUok7htTlGOLe65zaGdPXoI2nrNE+NBNpVgBQQSBu441FaU1vf/9jUubEwGYv4c5A2nsVUMi0b1j7N0XBfX5+ocaUyEFiEqpYzgVAldDUANQMqcSSNPhD4jk1AAUF7xcXFoqzQzjtbt5saN+qopFqzKpuTjY+4N7W2D21+9il30Z9R5gyFWDgYZBqYMyQUEobKUYkTEFDNEWKMe5SO4rD2daAopqKfYIOSgpoAQKQtCeKGGaFrCmDh1kycyBI+HxvK87CXPtwef3PNY0UwVzICeMs56ivPwgWrVpaVsgJqZLCnh2k0hQ6MrkzeidGncNiZvEreHnbSrfiz4sq25MWV+lIgBJDhGEumqKywXmjr9VVUsCi1ueNskMX8/i9fjEdXZzQQAppeM7tsvNAmCbwgoA5V2QCELktFt4+6XZYo/QPBpe4zRQYJg5nU1abgcor+OCx4Iy1yAc2eO6mMnWJ8UdaT+CLTvWOoAzM0yBJSR6mdhKNBgIFhitG1l4rSWAiAs39XvhtGH7OBq1KQ+B3/wW/29mlmwOrw3SR2nYBGIJBjaUNBjlktnDzSJnF64Irpv9lPrid9JvdSyjAAwQBCInsYEswCYJKZPts7MMQ4zYIhRx0NQAdCk+OaxqKza8EMi1Jc7TJOvq0YkXkq7M+jD1v7GHnRN6QirlSWvX8MsomUY1YA93D2RktXN9NhFNN04SGTHjaUpyK3vhQknj1RpTORKEoPkvDqsP+uJKV6Fu3hLJAa1UjSNovRRwlR6cDU1mkn2nP8BLtPd752rXOAv/AyPzztruXz5s3yUtK/CEnDeUi4sXhBBIGm63m09txSarrF79BUcGqhDJUl/PeDTDm4hnj5Z0VCXFOpYSFVDSMmzwj830dtjaX2S1nH0SHW07fbv3WzWWNXNxk12TPreGB6ZcPU6jk+aixIjfULEJpmygPLLYG4ROIAYKlOSztD7mYDcBlEQlKKhASCxK17y6L2Ulu300DdyTqOhNjx7qaej7aZlTL561vVG1/h+wvzaxevrJ9MMx6kBvup8wFq1BBh0QmMvGXCA4wF4jIASypcpvsWCEMCSInkLSCKSoA30TbLCqm9Ykq+lO1sPs1CkbbWd1836zLpymt67Vs+4NP3HuDfLl/S4J4z0ydmIpWCSr5EiQ5TkobcRZ0ycU0a/ly+12Mj5r8FwJCUIilnwhSlYqlsOhNYAT0/hhIvZkc6B9mulqb4skXm7PXPmz9mY6S56AH+9hZev/+gtqOuts5dO7+U1lw/dQ4lHhbmGF4i0GoUgKyk02J/UD6D9UHyutw3NJkwURE+iqKABqGIYhxr9/9MumBffGmN+ejG9WZzNjX/TxQZ/+SLCQXdgV8//a7T2VC/uEZfUltBICICiGkO03VYJpoQVwuMctWcYqSx6PG2hHMPrR0vXb2spa2H7Tlw0Jh1f7JlZlXV46tX/BDJVZndjKjn723jD54Jsle7T2lzxt9xt+veaRNYybhCUlke5i1wsiLfKPHHoXCMhSMJdvFilJ27EGEnfwqyc78HEpWV6aPlZWzThrVmh0zYvOWamOobqwxi3SMcHBzgqAUMqxUOGZrtnEnLUPZSQkZc1CCdEhRwPaPZ/Jn/ra3yF51y6wvXKCGBAAAAAElFTkSuQmCC;" parent="1" vertex="1">
          <mxGeometry x="185" y="578" width="20" height="20" as="geometry" />
        </mxCell>
        <mxCell id="dMD69vR6-e3nc01jPf0l-32" value="" style="shape=image;verticalLabelPosition=bottom;labelBackgroundColor=default;verticalAlign=top;aspect=fixed;imageAspect=0;image=data:image/png,iVBORw0KGgoAAAANSUhEUgAAADAAAAAwCAYAAAEgBckRAAAAGXRFWHRTb2Z0d2FyZQBBZG9iZSBJbWFnZVJlYWR5ccllPAAADZBpVFh0WE1MOmNvbS5hZG9iZS54bXAAAAAAADw/eHBhY2tldCBiZWdpbj0i77u/IiBpZD0iVzVNME1wQ2VoaUh6cmVTek5UY3prYzlkIj8+Cjx4OnhtcG1ldGEgeG1sbnM6eD0iYWRvYmU6bnM6bWV0YS8iIHg6eG1wdGs9IkFkb2JlIFhNUCBDb3JlIDQuMi4yLWMwNjMgNTMuMzUyNjI0LCAyMDA4LzA3LzMwLTE4OjA1OjQxICAgICAgICAiPgogPHJkZjpSREYgeG1sbnM6cmRmPSJodHRwOi8vd3d3LnczLm9yZy8xOTk5LzAyLzIyLXJkZi1zeW50YXgtbnMjIj4KICA8cmRmOkRlc2NyaXB0aW9uIHJkZjphYm91dD0iIgogICAgeG1sbnM6ZGM9Imh0dHA6Ly9wdXJsLm9yZy9kYy9lbGVtZW50cy8xLjEvIgogICAgeG1sbnM6eG1wUmlnaHRzPSJodHRwOi8vbnMuYWRvYmUuY29tL3hhcC8xLjAvcmlnaHRzLyIKICAgIHhtbG5zOnBob3Rvc2hvcD0iaHR0cDovL25zLmFkb2JlLmNvbS9waG90b3Nob3AvMS4wLyIKICAgIHhtbG5zOklwdGM0eG1wQ29yZT0iaHR0cDovL2lwdGMub3JnL3N0ZC9JcHRjNHhtcENvcmUvMS4wL3htbG5zLyIKICAgeG1wUmlnaHRzOldlYlN0YXRlbWVudD0iaHR0cDovL2Jsb2cuYWRkaWN0ZWR0b2NvZmZlZS5kZSIKICAgcGhvdG9zaG9wOkF1dGhvcnNQb3NpdGlvbj0iIj4KICAgPGRjOnJpZ2h0cz4KICAgIDxyZGY6QWx0PgogICAgIDxyZGY6bGkgeG1sOmxhbmc9IngtZGVmYXVsdCI+wqkgICAgICAgICAgICYjeEE7IDIwMDkgYnkgT2xpdmVyIFR3YXJkb3dza2k8L3JkZjpsaT4KICAgIDwvcmRmOkFsdD4KICAgPC9kYzpyaWdodHM+CiAgIDxkYzpjcmVhdG9yPgogICAgPHJkZjpTZXE+CiAgICAgPHJkZjpsaT5PbGl2ZXIgVHdhcmRvd3NraTwvcmRmOmxpPgogICAgPC9yZGY6U2VxPgogICA8L2RjOmNyZWF0b3I+CiAgIDxkYzp0aXRsZT4KICAgIDxyZGY6QWx0PgogICAgIDxyZGY6bGkgeG1sOmxhbmc9IngtZGVmYXVsdCIvPgogICAgPC9yZGY6QWx0PgogICA8L2RjOnRpdGxlPgogICA8eG1wUmlnaHRzOlVzYWdlVGVybXM+CiAgICA8cmRmOkFsdD4KICAgICA8cmRmOmxpIHhtbDpsYW5nPSJ4LWRlZmF1bHQiLz4KICAgIDwvcmRmOkFsdD4KICAgPC94bXBSaWdodHM6VXNhZ2VUZXJtcz4KICAgPElwdGM0eG1wQ29yZTpDcmVhdG9yQ29udGFjdEluZm8KICAgIElwdGM0eG1wQ29yZTpDaUFkckV4dGFkcj0iIgogICAgSXB0YzR4bXBDb3JlOkNpQWRyQ2l0eT0iIgogICAgSXB0YzR4bXBDb3JlOkNpQWRyUmVnaW9uPSIiCiAgICBJcHRjNHhtcENvcmU6Q2lBZHJQY29kZT0iIgogICAgSXB0YzR4bXBDb3JlOkNpQWRyQ3RyeT0iIgogICAgSXB0YzR4bXBDb3JlOkNpVGVsV29yaz0iIgogICAgSXB0YzR4bXBDb3JlOkNpRW1haWxXb3JrPSIiCiAgICBJcHRjNHhtcENvcmU6Q2lVcmxXb3JrPSIiLz4KICA8L3JkZjpEZXNjcmlwdGlvbj4KIDwvcmRmOlJERj4KPC94OnhtcG1ldGE+CiAgICAgICAgICAgICAgICAgICAgICAgICAgICAgICAgICAgICAgICAgICAgICAgICAgICAgICAgICAgICAgICAgICAgICAgICAgICAgICAgICAgICAgICAgICAgICAgICAgICAKICAgICAgICAgICAgICAgICAgICAgICAgICAgICAgICAgICAgICAgICAgICAgICAgICAgICAgICAgICAgICAgICAgICAgICAgICAgICAgICAgICAgICAgICAgICAgICAgICAgIAogICAgICAgICAgICAgICAgICAgICAgICAgICAgICAgICAgICAgICAgICAgICAgICAgICAgICAgICAgICAgICAgICAgICAgICAgICAgICAgICAgICAgICAgICAgICAgICAgICAgCiAgICAgICAgICAgICAgICAgICAgICAgICAgICAgICAgICAgICAgICAgICAgICAgICAgICAgICAgICAgICAgICAgICAgICAgICAgICAgICAgICAgICAgICAgICAgICAgICAgICAKICAgICAgICAgICAgICAgICAgICAgICAgICAgICAgICAgICAgICAgICAgICAgICAgICAgICAgICAgICAgICAgICAgICAgICAgICAgICAgICAgICAgICAgICAgICAgICAgICAgIAogICAgICAgICAgICAgICAgICAgICAgICAgICAgICAgICAgICAgICAgICAgICAgICAgICAgICAgICAgICAgICAgICAgICAgICAgICAgICAgICAgICAgICAgICAgICAgICAgICAgCiAgICAgICAgICAgICAgICAgICAgICAgICAgICAgICAgICAgICAgICAgICAgICAgICAgICAgICAgICAgICAgICAgICAgICAgICAgICAgICAgICAgICAgICAgICAgICAgICAgICAKICAgICAgICAgICAgICAgICAgICAgICAgICAgICAgICAgICAgICAgICAgICAgICAgICAgICAgICAgICAgICAgICAgICAgICAgICAgICAgICAgICAgICAgICAgICAgICAgICAgIAogICAgICAgICAgICAgICAgICAgICAgICAgICAgICAgICAgICAgICAgICAgICAgICAgICAgICAgICAgICAgICAgICAgICAgICAgICAgICAgICAgICAgICAgICAgICAgICAgICAgCiAgICAgICAgICAgICAgICAgICAgICAgICAgICAgICAgICAgICAgICAgICAgICAgICAgICAgICAgICAgICAgICAgICAgICAgICAgICAgICAgICAgICAgICAgICAgICAgICAgICAKICAgICAgICAgICAgICAgICAgICAgICAgICAgICAgICAgICAgICAgICAgICAgICAgICAgICAgICAgICAgICAgICAgICAgICAgICAgICAgICAgICAgICAgICAgICAgICAgICAgIAogICAgICAgICAgICAgICAgICAgICAgICAgICAgICAgICAgICAgICAgICAgICAgICAgICAgICAgICAgICAgICAgICAgICAgICAgICAgICAgICAgICAgICAgICAgICAgICAgICAgCiAgICAgICAgICAgICAgICAgICAgICAgICAgICAgICAgICAgICAgICAgICAgICAgICAgICAgICAgICAgICAgICAgICAgICAgICAgICAgICAgICAgICAgICAgICAgICAgICAgICAKICAgICAgICAgICAgICAgICAgICAgICAgICAgICAgICAgICAgICAgICAgICAgICAgICAgICAgICAgICAgICAgICAgICAgICAgICAgICAgICAgICAgICAgICAgICAgICAgICAgIAogICAgICAgICAgICAgICAgICAgICAgICAgICAgICAgICAgICAgICAgICAgICAgICAgICAgICAgICAgICAgICAgICAgICAgICAgICAgICAgICAgICAgICAgICAgICAgICAgICAgCiAgICAgICAgICAgICAgICAgICAgICAgICAgICAgICAgICAgICAgICAgICAgICAgICAgICAgICAgICAgICAgICAgICAgICAgICAgICAgICAgICAgICAgICAgICAgICAgICAgICAKICAgICAgICAgICAgICAgICAgICAgICAgICAgICAgICAgICAgICAgICAgICAgICAgICAgICAgICAgICAgICAgICAgICAgICAgICAgICAgICAgICAgICAgICAgICAgICAgICAgIAogICAgICAgICAgICAgICAgICAgICAgICAgICAgICAgICAgICAgICAgICAgICAgICAgICAgICAgICAgICAgICAgICAgICAgICAgICAgICAgICAgICAgICAgICAgICAgICAgICAgCiAgICAgICAgICAgICAgICAgICAgICAgICAgICAgICAgICAgICAgICAgICAgICAgICAgICAgICAgICAgICAgICAgICAgICAgICAgICAgICAgICAgICAgICAgICAgICAgICAgICAKICAgICAgICAgICAgICAgICAgICAgICAgICAgICAgICAgICAgICAgICAgICAgICAgICAgICAgICAgICAgICAgICAgICAgICAgICAgICAgICAgICAgICAgICAgICAgICAgICAgIAogICAgICAgICAgICAgICAgICAgICAgICAgICAKPD94cGFja2V0IGVuZD0idyI/PgiL5zQAABN+SURBVHjaYvz//z8DNsAEY5iaFv33M8n8/3jSNLBKRpAOP7+u/5GJlgz35h9iKPuwk4FBUxOi4/6dTwyr5l9mkJTiY2ARFmB4cP4MRMepPTv/iwgLMfDx8TF8+vSJ4dO37xAJEDh16uT/f//+MbCysjEYGxszAgQQI15XzZh5+L+6Tvb/m7lF/+fnl4JVMjGx2u+/cecOw8QJmQzqd28w+O7fCdbBkpsR6XD26GuGTy8vMHiIizAwfP3I4M7B+5tFVvKde2K7+U5JSQmGlwxGDM9fvGDYaefEygCyvLal4/+xY0f/Hz9+7H9oXMpLkBhAAIElkDEji9P+xPTZ/w8uOPh/bmDk/0ns/LYo8jBv1NSs+n/r/j0GUTFhBi42IYZHtx8wVDa5Mvz48YPh169fDLv2H2Foqa5gZAEpDomo/P/pMzuDk6MRg7aBOIMIrzTD6vUMDAoycgyfv35l+Pj+PYO3kz1DclbhNbAGI/FfDM4mQgyCfM8ZBN5/Z+D/+YnBxI2L4d+xEwx/vnxi+AnU8PvnTwbxp4+vwp0028v3v8ur5wwcv38zcHJwMDAzMzP8/fuX4TvQOb8FBBiaj556NfvXV3EUDwMBBxDrZbNy3LVl4/tXysJ6EMhXQ1YDEICO8gmFIIrj+Hdm982sN7ObXcUeUOTCiaS1JX8u2ogUhy2ODnLc3HH0JynRbo4cSCml5KS0KDmhpOQiXBizdpkZm3nezOZPan/1+tV77/t7v/e+n15R74qF+H+iq3+UpdOX7Hp2nvXSkFlU4FGazcnJI1ZiN2AtdQr7/g4LY6OyfnzCUh2x3u99bksk0LnX3tIXe3x8AKV+KFTEyvIQTNuCYRio5s9bXVkp/AgSiVW2v38DRQlyalX4fO/YxSG4a8g6BPN8UFOHkZ3tgnH5fBDEQ7iAQFUVnkPQUxvI8+oO8pqmoV4sdO8KLs6vQCQRsleATABJFVA6kQBedVDtBdLzEz5r64DNrYJgLl4G6SOPYLAUAW4SpRTscxA500JGz0B/0eAJV/yeIDc1wshm8BbwQ1T9+PDJ/HKAxXHI5rKwcuUYn55lp/F44dLrXklp74nl2O0tKMdCJsStZnFMDI6HFIkgnEz+vpITM4tLzd0dbWcOzu6CILjDthmi0Vbhx7l/LFWNe7xTA5JiDhOacb4aPsr+7vkSgNVqC4kqiqJrrnfuHZ+Qikk4fZiVIqa9zAJzcixlDJ2kkIj6KAj86CMpiX7DIAiTUoOB6rOICgu/RCmyfGSBGmbjqBE+P9KsMee+Zk773MyKpkjowOaew+Wufc7aa+1zV6yllQ7hTy9S0iseFJVUs5evfKymppPdvfOMOZ3nmLuynvX19THf2BibmJpio/TcWVxmXG7yRIfD+e0EEbZNSt2lRrm1tQd+/zyV2orkFBlzHxaoiYnI1CZQG+wFkYcgfWtwKqgQdocD98beQ2t5lH1U1wbCJigpO8NyN7vQ3TWA6elJbMuLx2B/LCqP2dFyfwiOXdnwjr7GhVoXLJoIwzBItbrZg3hwpOjYGFy5fsN709OQvqwjPgr3H2f2BCceP2lH2no7yTkKzuJCjL/rRl5uFjraPqJgbxqUCR8SugZhWFRoumZqTVQ1CKQOPg+QNU7nb994sdx9+PzD5tvLCbZm5mNocA5zs7P4vDqebgMRw2/HyXhRGPYukJ+AyRkFq2QL4l70Q1Cpr9Gu1YCCgBJAgK6UL4FF6CS9iHWpeN7ecYtgfyTY41iDCnccUbuFQG2IjIw0o+qEzVwfOpAKSZIgHMzAJ+Jf5LQQPVzXKgVvEzw4ZRIZw6qxxV9q4JZj1IZyl2T4fLAuNVYbJbDJMgQKcDeJtB8LCY+FQAXgbQOM00KhELhC61BiItTMLHibGiWXoevLJ2hWF+Q8Z2nomsdjMXklMCuB8l3z4GuBWgz5zzRQiJLwIn8vMJ8vWRRPO3t3nyXwsDKtKygsjc3JacmlGys4P2/uVCRKBLomeAIOADPBN6cGeVLqRlJSEk7VN+ltI2+kv/rg51Edn9ydsa9ohzN1LZjfb9LBfwcsdJoIqrpCFJ686mFHrMKGqtmZkX8y2v8eXwUgvnpgqiqj+O++ey/3/eWJ+B4SFEiKQ1/OAhWdAhY6MZUysRguKaeRC2uZuba0aC5dmba5stpyK7VNDdfMWqCQtjm1TH0pKIjBnmg8eOMl8PC+f/d2vst7AgOdbm3e7ey9u3vvd873+845v995cL3o/7qEuz3kxcWzTAmdR3KzZ0jTps7A9KwUPHLlEm7U/Y5va2oxsrn52Me93tn3DVFGZpmp4eKxm/v2fMNfbVHxr8cHT7cLV+r+wUebn4TZatG4TKAM2ru/Eq3ujkOfflhReE8ORiWXPJ09LeFw0aIXceDAcXg8bk3BqJTmqWlp2JjigpndMNKTYmDPn0M0y+PlV9b4f2hw6u/qQJCemVT0QoYz2T4PF+qOwtUSpDbBCkymWjBApor+Tq5CnNIF0k597Zrqw5CQAOucOVi24QP/9/4e/R0dLF3+lpqW+Cxt+STOnurAmHEj0N7ugV6wIz7FDG+rjC+3FcCvp0JTQpFKDpKvECRJDyMF8NWefb/s2LKpYEgWPTbzucsjDZNhe/g6zpzsxPyFDrhv3ERKcjqs8Tp0tQUxcXwqRGMYFtLdFp0YMQFGVQelpxexRhPGJiXNGzaLkkY+Or64xIHVZXtRVp6D3btOICdvCpoam2GNtWFcioCmZg9Gv30IJsWjNTqFjPUtZjJZ2GxGscOBClH/63tBefZtBzpxYfHXu1bjnfVHsG5DAbZvrsHzJTmora7DxIkZ9HEnbrhDWFg4mc4hEbLYg1CQCMcf6HfA2rYSRlzGBDRca8sbdAa5C1bUJ1snZeTOHYPtW87jpVUO/HjwPGblZqOJ5Pmo+NGw28y4+reMnZ/NJFIRtSYYjTzKB8yJxWLBH+f+Qumy4n5hpJMy5Y3vrpUq9zsxZeYoXDjTg7kFj+PM6VbYbDZKz1i4rnnxRGYaSl21GOHroMbn0xbvW/gWeonR/KTt+MQE9KSmIuuTrdxtiDgE+UvOVjpxHs4TXRD1Ik4cb4TFZERQ7oWrifLexKHu4lUYjPQ/4CXSD8BAEQv+W+Dpl6P3eL9MXTcGVuWhwYdcuCSze+3reXGMOBjJROmSUSWzgaTDWKSb4AkzPiZjsNxi+EcgYnLQ472JcQMdpPu6a/RXGpaAcp6ngxJocZ7NImQ6I5kg0eIGKBIVXoijvKc9h/roUqVFVYJGJcInFQBQql6ob8T8ufn9h/yzIIrjXy0L8E4nOA8VVmQXWvSMj5kxPuZZPKpWxRon+1km9WUQ4+UgVTWfno7XKg/5KyMVre2AkfPUnKfUnZve58IUjU7gNbKXyBg0DLYoJ7OLsdog0UXfyCx6gkdvMmO6w7FoSKEVLV6cG5RMvymCvo/UaVGFoAkKJEHI+Cgn0wYUjmQjfRpUeYQUHn6JxjqhL5gV6zaop2p+qh62F62MMbkrSkvs/suXwRHhC2xkikTPWvOgHTAjqJh4UAhOLjERVYEwpOoq87JQwDcs4bBhMn/shMCONWWi3N5OB0cpyLCm6IXIwBCdEZiqUOheZQEQN5xy0/x+9tyCNwcsfkfCWbp8pbt85XK7gWYdhjV7heOGdHryq9NgOXi4ipLHmLX+jfI/75n0d8aPHrs3qDR+Ub6K0/f6tN2w7FGZ9qTD561WHG1qQX310dPbOtuy71tVEBzxbBwis9KYvbWNEye3cIKF5FggSQ1fV5XQ7s/DoYP03EvWQevID0S2/CdAt1YeVNV5xX/37QuPRSAiD5C1LCFKZHBBCWSoKdG6YNpMNHQcJ6OpdRrsZBpTJ3Wm/uO008zU1K6TyVJtMq1N7NBSSFwQkISgRiGAihGRVZb3gMf6tnt7zn33UjDSpBlNZ8LMme96ec/vnO873zm/3+/jvk9wv3/uWQBa/canJWGiGII7UZD8dkoIE/2b6M44CuAaj5A805GQekIlsT0S4omdXs+f/28BPLHjpeS62uZjA13Xl397w0Zhy+Z8ZKTF4+L5MbhcBGSopBcWhKDlKpEqpw9b1j1AOUkEgI8q1QKJasCIcwTV9fV47a3jUs43UhqSY+wlPzr0s0/vWwAa/ePZGTmWf2Vnpj+QFJtDMCMGcfF6hIcLOPJKI7q7h2E1jWPThnSUn76C7lujdPwtCIrz4+CLBbAQvvEpAoWegrAQ/GBBkskclzeHcxh/LStH67XrA9kPZ63bv3fPxXsSQIj9u+uTUqZOLE1Zrc/KzIfDocGq1RpU1TaisuxTqqoWpGZYsfnJJXj1t+cw0CfBqPPimR0r0dzjwHhlJZ5HH8LosM+Zi4skBcItQUu1LDQmBiGpqfBTRS6rOofX/1nu3SS6i3d5PeVfKoBw+1ZrRpb2Rrg1buHS9HyMuyywxw8Q+ffg3eNNcjtYvioBuWsW4Y1Xa4mDm2hXQvH9XUtxrr4D5xs6OHxkmF14IXkMNmkIPkKXELnS++XvyxzSJ8KnTkq8X2cLRtSqFZikzvzue2dw4Wxt/2qbOWlna/PEFw5g1dof5H1UU1O9e2epYI+OQWyShGOvt6Kr00mTj+GppwvQ3dOPhg86qc+FICkhAoXrEvCPv1/A6PA0RIMez25/BF0dA/io9WMc+mkJ7YoOfiFAemXn2Rj8s15Do/rM77n1hFL7YrgxSPBj7/6DUvGGdfn79u6p/XyhSF/0mKS5Wbn/xweE7JwknPjbNVy63ChLsMtyouEamUL7DSc1aR/ik6KRnByHhvpm2YGw0CgsXxGLliu9GOxn9GVFmtGB0hQnpZCTHCUI4xOUANjpgPNs3Nj9XkJyRDj8jCioTQbZ7TAlJGBiYhI7fnlEejLMVvRcW8v7/4U6bdXD2j5WuusZo7NfhGPIgt7eDoRHGDE84qAJGVUEYUGEnnqvgdKJwIBeIkYThGh7JAYHRwhlmOkzU0hKDIFn3ILI3nbsFNoQLvbJKyvwirMx7FQdV1CJjLH4mUZW0KjRI2zxYlnZHiWc9eIfX3Nv97ttWxT94zNoRcLgW2vXrDT6pqhieG0YcjTC7SUArV0MnTaYMBZrIT5afRN0eitxSi0MJuaWwdBqCMZqJmE28BWAARMjAsb9k5CSQ2HefwhjGmFG4VRX3a84q46qeZVgeKccSjoxKl0WHWv8cGLyT1uArXcNICreXBgVGUerPkp7KCE7Jx7nL04TiXWQ01qsyE2hkieiteUWxsb8SExMQHJaCC7Ud9F3nFQWDVShUtF8pQujQ+OUQmZiCAT8bzsh0LkQxSly1n1X5/2zHNdSKvn83sDZYIQ96YKG3uWmxOEPb7z9rXkFir6OW7bEkigkpUbiL8caUX2aUJZgwq7duejo6ENdzQ0KJAibi/OoMfhx5mQz+vtN5LgNT23LxeWPO3Gupg2CTkJxSS4GuyV4PzwF3eHfE2EgwuHzQ8+HlDNAxf2KHscjC3+cHWogHg6MyyztgLRgAcIWRWP65GnbvGcgu3DT9L7SPUYChHKeMrFj3MkSGsN2g94gS5w6nV4xnYK4tTKk55QKoe9SYScITxCfHoPhQSjLD14XlUw9vKIgrzbnvqikjOyob9Y5IMbkVX7n5+pqNMiEZ5J8OvirI+7KMxWmu+5AVmpi+8ToUHpmWoq8CiIdSO6c7NwMNZhxWjfH+DNszJyYPphYH5RRvpkOZDDcUqSclqIofuYM3C3/VZMUZsBzXr/aBntaWvu8O/AbvaGkKTH16EuFefB2dcE/OAhxfJy4pig7JTuuOs96ruI4P/MI1VTBk42f5drOAqg/8Mzpw+BfLp3eQCVih72BlecguBpJ9P9LVis04eEwxMbiwPtVyG5v2/as1/P2vH1gb3R8bXphwZq86IXwcAAul0yAtfQ5LTkzdxd41XXye5kVysyQ3mnonaCVZWeRmpePzoufwJyOM5J2QW5Y3ANEZScofThtfGow/HuuikYi53S+9JGRqOruRdups2df7r356Od24u/tLr267MH01LxVObLAzSsVQHSaALu8I21k4/cKtdWoBFGYe5mkStB3duEZ49KpSHOCumDUC2rrGnCxueXa0d8dTvvCWKh0ycMVYQ9lFhXnZMHtdMI75oJItVjDUrXEsQiBCRSntTrF+ZncF+YQ0dlXyiqU4JVXKTaPkgzwaOdMVCxsITCEheGdhksYbvqk8nDTpcf/ZzT6pt6wpExjaPhO0WPG/Igw+AiXiMPDVJcnqS575WA0LF+pq35HAOr9njrH7AD4DfMCGchxrrO0YrHIJVNLKVM94MDxivfcG0XP8u2z7rC+FB/4+cu/Xn+quvadosIC49r81fIhU1fvDiI9Z4QwWwQQ5sBp+c5xZqcEpRjocLK6DhWnqtzfzM97Yt/zPyy/p4zslUO/sPbcHjha19S8ccPaAu36Rx+h3BVllZfBmSTK6zoz/ieKgLChEQLVSd4lpSDwuao4U4Oyk1X+lQ89WB63aOG2537ywsRXwonf1Bnybgqag5c1ulx7QoIhMy4OMSGE54OtCKWmt8BqlsMYnpzCiMeD22OT6BkZxSednei52eHJEr0fJEjige0+T+1Xxolpu7kL8iWuhcys/KmDkcygmE4xzSyZXVTMp5hHMS6srMdMkfEd4cR8+szXVlb5Ny2OOgnabw7BAAAAAElFTkSuQmCC;" parent="1" vertex="1">
          <mxGeometry x="290" y="490" width="20" height="20" as="geometry" />
        </mxCell>
        <mxCell id="dMD69vR6-e3nc01jPf0l-33" value="" style="shape=image;verticalLabelPosition=bottom;labelBackgroundColor=default;verticalAlign=top;aspect=fixed;imageAspect=0;image=data:image/png,iVBORw0KGgoAAAANSUhEUgAAADAAAAAwCAYAAAEgBckRAAAAGXRFWHRTb2Z0d2FyZQBBZG9iZSBJbWFnZVJlYWR5ccllPAAADZBpVFh0WE1MOmNvbS5hZG9iZS54bXAAAAAAADw/eHBhY2tldCBiZWdpbj0i77u/IiBpZD0iVzVNME1wQ2VoaUh6cmVTek5UY3prYzlkIj8+Cjx4OnhtcG1ldGEgeG1sbnM6eD0iYWRvYmU6bnM6bWV0YS8iIHg6eG1wdGs9IkFkb2JlIFhNUCBDb3JlIDQuMi4yLWMwNjMgNTMuMzUyNjI0LCAyMDA4LzA3LzMwLTE4OjA1OjQxICAgICAgICAiPgogPHJkZjpSREYgeG1sbnM6cmRmPSJodHRwOi8vd3d3LnczLm9yZy8xOTk5LzAyLzIyLXJkZi1zeW50YXgtbnMjIj4KICA8cmRmOkRlc2NyaXB0aW9uIHJkZjphYm91dD0iIgogICAgeG1sbnM6ZGM9Imh0dHA6Ly9wdXJsLm9yZy9kYy9lbGVtZW50cy8xLjEvIgogICAgeG1sbnM6eG1wUmlnaHRzPSJodHRwOi8vbnMuYWRvYmUuY29tL3hhcC8xLjAvcmlnaHRzLyIKICAgIHhtbG5zOnBob3Rvc2hvcD0iaHR0cDovL25zLmFkb2JlLmNvbS9waG90b3Nob3AvMS4wLyIKICAgIHhtbG5zOklwdGM0eG1wQ29yZT0iaHR0cDovL2lwdGMub3JnL3N0ZC9JcHRjNHhtcENvcmUvMS4wL3htbG5zLyIKICAgeG1wUmlnaHRzOldlYlN0YXRlbWVudD0iaHR0cDovL2Jsb2cuYWRkaWN0ZWR0b2NvZmZlZS5kZSIKICAgcGhvdG9zaG9wOkF1dGhvcnNQb3NpdGlvbj0iIj4KICAgPGRjOnJpZ2h0cz4KICAgIDxyZGY6QWx0PgogICAgIDxyZGY6bGkgeG1sOmxhbmc9IngtZGVmYXVsdCI+wqkgICAgICAgICAgICYjeEE7IDIwMDkgYnkgT2xpdmVyIFR3YXJkb3dza2k8L3JkZjpsaT4KICAgIDwvcmRmOkFsdD4KICAgPC9kYzpyaWdodHM+CiAgIDxkYzpjcmVhdG9yPgogICAgPHJkZjpTZXE+CiAgICAgPHJkZjpsaT5PbGl2ZXIgVHdhcmRvd3NraTwvcmRmOmxpPgogICAgPC9yZGY6U2VxPgogICA8L2RjOmNyZWF0b3I+CiAgIDxkYzp0aXRsZT4KICAgIDxyZGY6QWx0PgogICAgIDxyZGY6bGkgeG1sOmxhbmc9IngtZGVmYXVsdCIvPgogICAgPC9yZGY6QWx0PgogICA8L2RjOnRpdGxlPgogICA8eG1wUmlnaHRzOlVzYWdlVGVybXM+CiAgICA8cmRmOkFsdD4KICAgICA8cmRmOmxpIHhtbDpsYW5nPSJ4LWRlZmF1bHQiLz4KICAgIDwvcmRmOkFsdD4KICAgPC94bXBSaWdodHM6VXNhZ2VUZXJtcz4KICAgPElwdGM0eG1wQ29yZTpDcmVhdG9yQ29udGFjdEluZm8KICAgIElwdGM0eG1wQ29yZTpDaUFkckV4dGFkcj0iIgogICAgSXB0YzR4bXBDb3JlOkNpQWRyQ2l0eT0iIgogICAgSXB0YzR4bXBDb3JlOkNpQWRyUmVnaW9uPSIiCiAgICBJcHRjNHhtcENvcmU6Q2lBZHJQY29kZT0iIgogICAgSXB0YzR4bXBDb3JlOkNpQWRyQ3RyeT0iIgogICAgSXB0YzR4bXBDb3JlOkNpVGVsV29yaz0iIgogICAgSXB0YzR4bXBDb3JlOkNpRW1haWxXb3JrPSIiCiAgICBJcHRjNHhtcENvcmU6Q2lVcmxXb3JrPSIiLz4KICA8L3JkZjpEZXNjcmlwdGlvbj4KIDwvcmRmOlJERj4KPC94OnhtcG1ldGE+CiAgICAgICAgICAgICAgICAgICAgICAgICAgICAgICAgICAgICAgICAgICAgICAgICAgICAgICAgICAgICAgICAgICAgICAgICAgICAgICAgICAgICAgICAgICAgICAgICAgICAKICAgICAgICAgICAgICAgICAgICAgICAgICAgICAgICAgICAgICAgICAgICAgICAgICAgICAgICAgICAgICAgICAgICAgICAgICAgICAgICAgICAgICAgICAgICAgICAgICAgIAogICAgICAgICAgICAgICAgICAgICAgICAgICAgICAgICAgICAgICAgICAgICAgICAgICAgICAgICAgICAgICAgICAgICAgICAgICAgICAgICAgICAgICAgICAgICAgICAgICAgCiAgICAgICAgICAgICAgICAgICAgICAgICAgICAgICAgICAgICAgICAgICAgICAgICAgICAgICAgICAgICAgICAgICAgICAgICAgICAgICAgICAgICAgICAgICAgICAgICAgICAKICAgICAgICAgICAgICAgICAgICAgICAgICAgICAgICAgICAgICAgICAgICAgICAgICAgICAgICAgICAgICAgICAgICAgICAgICAgICAgICAgICAgICAgICAgICAgICAgICAgIAogICAgICAgICAgICAgICAgICAgICAgICAgICAgICAgICAgICAgICAgICAgICAgICAgICAgICAgICAgICAgICAgICAgICAgICAgICAgICAgICAgICAgICAgICAgICAgICAgICAgCiAgICAgICAgICAgICAgICAgICAgICAgICAgICAgICAgICAgICAgICAgICAgICAgICAgICAgICAgICAgICAgICAgICAgICAgICAgICAgICAgICAgICAgICAgICAgICAgICAgICAKICAgICAgICAgICAgICAgICAgICAgICAgICAgICAgICAgICAgICAgICAgICAgICAgICAgICAgICAgICAgICAgICAgICAgICAgICAgICAgICAgICAgICAgICAgICAgICAgICAgIAogICAgICAgICAgICAgICAgICAgICAgICAgICAgICAgICAgICAgICAgICAgICAgICAgICAgICAgICAgICAgICAgICAgICAgICAgICAgICAgICAgICAgICAgICAgICAgICAgICAgCiAgICAgICAgICAgICAgICAgICAgICAgICAgICAgICAgICAgICAgICAgICAgICAgICAgICAgICAgICAgICAgICAgICAgICAgICAgICAgICAgICAgICAgICAgICAgICAgICAgICAKICAgICAgICAgICAgICAgICAgICAgICAgICAgICAgICAgICAgICAgICAgICAgICAgICAgICAgICAgICAgICAgICAgICAgICAgICAgICAgICAgICAgICAgICAgICAgICAgICAgIAogICAgICAgICAgICAgICAgICAgICAgICAgICAgICAgICAgICAgICAgICAgICAgICAgICAgICAgICAgICAgICAgICAgICAgICAgICAgICAgICAgICAgICAgICAgICAgICAgICAgCiAgICAgICAgICAgICAgICAgICAgICAgICAgICAgICAgICAgICAgICAgICAgICAgICAgICAgICAgICAgICAgICAgICAgICAgICAgICAgICAgICAgICAgICAgICAgICAgICAgICAKICAgICAgICAgICAgICAgICAgICAgICAgICAgICAgICAgICAgICAgICAgICAgICAgICAgICAgICAgICAgICAgICAgICAgICAgICAgICAgICAgICAgICAgICAgICAgICAgICAgIAogICAgICAgICAgICAgICAgICAgICAgICAgICAgICAgICAgICAgICAgICAgICAgICAgICAgICAgICAgICAgICAgICAgICAgICAgICAgICAgICAgICAgICAgICAgICAgICAgICAgCiAgICAgICAgICAgICAgICAgICAgICAgICAgICAgICAgICAgICAgICAgICAgICAgICAgICAgICAgICAgICAgICAgICAgICAgICAgICAgICAgICAgICAgICAgICAgICAgICAgICAKICAgICAgICAgICAgICAgICAgICAgICAgICAgICAgICAgICAgICAgICAgICAgICAgICAgICAgICAgICAgICAgICAgICAgICAgICAgICAgICAgICAgICAgICAgICAgICAgICAgIAogICAgICAgICAgICAgICAgICAgICAgICAgICAgICAgICAgICAgICAgICAgICAgICAgICAgICAgICAgICAgICAgICAgICAgICAgICAgICAgICAgICAgICAgICAgICAgICAgICAgCiAgICAgICAgICAgICAgICAgICAgICAgICAgICAgICAgICAgICAgICAgICAgICAgICAgICAgICAgICAgICAgICAgICAgICAgICAgICAgICAgICAgICAgICAgICAgICAgICAgICAKICAgICAgICAgICAgICAgICAgICAgICAgICAgICAgICAgICAgICAgICAgICAgICAgICAgICAgICAgICAgICAgICAgICAgICAgICAgICAgICAgICAgICAgICAgICAgICAgICAgIAogICAgICAgICAgICAgICAgICAgICAgICAgICAKPD94cGFja2V0IGVuZD0idyI/PgiL5zQAABN+SURBVHjaYvz//z8DNsAEY5iaFv33M8n8/3jSNLBKRpAOP7+u/5GJlgz35h9iKPuwk4FBUxOi4/6dTwyr5l9mkJTiY2ARFmB4cP4MRMepPTv/iwgLMfDx8TF8+vSJ4dO37xAJEDh16uT/f//+MbCysjEYGxszAgQQI15XzZh5+L+6Tvb/m7lF/+fnl4JVMjGx2u+/cecOw8QJmQzqd28w+O7fCdbBkpsR6XD26GuGTy8vMHiIizAwfP3I4M7B+5tFVvKde2K7+U5JSQmGlwxGDM9fvGDYaefEygCyvLal4/+xY0f/Hz9+7H9oXMpLkBhAAIElkDEji9P+xPTZ/w8uOPh/bmDk/0ns/LYo8jBv1NSs+n/r/j0GUTFhBi42IYZHtx8wVDa5Mvz48YPh169fDLv2H2Foqa5gZAEpDomo/P/pMzuDk6MRg7aBOIMIrzTD6vUMDAoycgyfv35l+Pj+PYO3kz1DclbhNbAGI/FfDM4mQgyCfM8ZBN5/Z+D/+YnBxI2L4d+xEwx/vnxi+AnU8PvnTwbxp4+vwp0028v3v8ur5wwcv38zcHJwMDAzMzP8/fuX4TvQOb8FBBiaj556NfvXV3EUDwMBBxDrZbNy3LVl4/tXysJ6EMhXQ1YDEICO8gmFIIrj+Hdm982sN7ObXcUeUOTCiaS1JX8u2ogUhy2ODnLc3HH0JynRbo4cSCml5KS0KDmhpOQiXBizdpkZm3nezOZPan/1+tV77/t7v/e+n15R74qF+H+iq3+UpdOX7Hp2nvXSkFlU4FGazcnJI1ZiN2AtdQr7/g4LY6OyfnzCUh2x3u99bksk0LnX3tIXe3x8AKV+KFTEyvIQTNuCYRio5s9bXVkp/AgSiVW2v38DRQlyalX4fO/YxSG4a8g6BPN8UFOHkZ3tgnH5fBDEQ7iAQFUVnkPQUxvI8+oO8pqmoV4sdO8KLs6vQCQRsleATABJFVA6kQBedVDtBdLzEz5r64DNrYJgLl4G6SOPYLAUAW4SpRTscxA500JGz0B/0eAJV/yeIDc1wshm8BbwQ1T9+PDJ/HKAxXHI5rKwcuUYn55lp/F44dLrXklp74nl2O0tKMdCJsStZnFMDI6HFIkgnEz+vpITM4tLzd0dbWcOzu6CILjDthmi0Vbhx7l/LFWNe7xTA5JiDhOacb4aPsr+7vkSgNVqC4kqiqJrrnfuHZ+Qikk4fZiVIqa9zAJzcixlDJ2kkIj6KAj86CMpiX7DIAiTUoOB6rOICgu/RCmyfGSBGmbjqBE+P9KsMee+Zk773MyKpkjowOaew+Wufc7aa+1zV6yllQ7hTy9S0iseFJVUs5evfKymppPdvfOMOZ3nmLuynvX19THf2BibmJpio/TcWVxmXG7yRIfD+e0EEbZNSt2lRrm1tQd+/zyV2orkFBlzHxaoiYnI1CZQG+wFkYcgfWtwKqgQdocD98beQ2t5lH1U1wbCJigpO8NyN7vQ3TWA6elJbMuLx2B/LCqP2dFyfwiOXdnwjr7GhVoXLJoIwzBItbrZg3hwpOjYGFy5fsN709OQvqwjPgr3H2f2BCceP2lH2no7yTkKzuJCjL/rRl5uFjraPqJgbxqUCR8SugZhWFRoumZqTVQ1CKQOPg+QNU7nb994sdx9+PzD5tvLCbZm5mNocA5zs7P4vDqebgMRw2/HyXhRGPYukJ+AyRkFq2QL4l70Q1Cpr9Gu1YCCgBJAgK6UL4FF6CS9iHWpeN7ecYtgfyTY41iDCnccUbuFQG2IjIw0o+qEzVwfOpAKSZIgHMzAJ+Jf5LQQPVzXKgVvEzw4ZRIZw6qxxV9q4JZj1IZyl2T4fLAuNVYbJbDJMgQKcDeJtB8LCY+FQAXgbQOM00KhELhC61BiItTMLHibGiWXoevLJ2hWF+Q8Z2nomsdjMXklMCuB8l3z4GuBWgz5zzRQiJLwIn8vMJ8vWRRPO3t3nyXwsDKtKygsjc3JacmlGys4P2/uVCRKBLomeAIOADPBN6cGeVLqRlJSEk7VN+ltI2+kv/rg51Edn9ydsa9ohzN1LZjfb9LBfwcsdJoIqrpCFJ686mFHrMKGqtmZkX8y2v8eXwUgvnpgqiqj+O++ey/3/eWJ+B4SFEiKQ1/OAhWdAhY6MZUysRguKaeRC2uZuba0aC5dmba5stpyK7VNDdfMWqCQtjm1TH0pKIjBnmg8eOMl8PC+f/d2vst7AgOdbm3e7ey9u3vvd873+845v995cL3o/7qEuz3kxcWzTAmdR3KzZ0jTps7A9KwUPHLlEm7U/Y5va2oxsrn52Me93tn3DVFGZpmp4eKxm/v2fMNfbVHxr8cHT7cLV+r+wUebn4TZatG4TKAM2ru/Eq3ujkOfflhReE8ORiWXPJ09LeFw0aIXceDAcXg8bk3BqJTmqWlp2JjigpndMNKTYmDPn0M0y+PlV9b4f2hw6u/qQJCemVT0QoYz2T4PF+qOwtUSpDbBCkymWjBApor+Tq5CnNIF0k597Zrqw5CQAOucOVi24QP/9/4e/R0dLF3+lpqW+Cxt+STOnurAmHEj0N7ugV6wIz7FDG+rjC+3FcCvp0JTQpFKDpKvECRJDyMF8NWefb/s2LKpYEgWPTbzucsjDZNhe/g6zpzsxPyFDrhv3ERKcjqs8Tp0tQUxcXwqRGMYFtLdFp0YMQFGVQelpxexRhPGJiXNGzaLkkY+Or64xIHVZXtRVp6D3btOICdvCpoam2GNtWFcioCmZg9Gv30IJsWjNTqFjPUtZjJZ2GxGscOBClH/63tBefZtBzpxYfHXu1bjnfVHsG5DAbZvrsHzJTmora7DxIkZ9HEnbrhDWFg4mc4hEbLYg1CQCMcf6HfA2rYSRlzGBDRca8sbdAa5C1bUJ1snZeTOHYPtW87jpVUO/HjwPGblZqOJ5Pmo+NGw28y4+reMnZ/NJFIRtSYYjTzKB8yJxWLBH+f+Qumy4n5hpJMy5Y3vrpUq9zsxZeYoXDjTg7kFj+PM6VbYbDZKz1i4rnnxRGYaSl21GOHroMbn0xbvW/gWeonR/KTt+MQE9KSmIuuTrdxtiDgE+UvOVjpxHs4TXRD1Ik4cb4TFZERQ7oWrifLexKHu4lUYjPQ/4CXSD8BAEQv+W+Dpl6P3eL9MXTcGVuWhwYdcuCSze+3reXGMOBjJROmSUSWzgaTDWKSb4AkzPiZjsNxi+EcgYnLQ472JcQMdpPu6a/RXGpaAcp6ngxJocZ7NImQ6I5kg0eIGKBIVXoijvKc9h/roUqVFVYJGJcInFQBQql6ob8T8ufn9h/yzIIrjXy0L8E4nOA8VVmQXWvSMj5kxPuZZPKpWxRon+1km9WUQ4+UgVTWfno7XKg/5KyMVre2AkfPUnKfUnZve58IUjU7gNbKXyBg0DLYoJ7OLsdog0UXfyCx6gkdvMmO6w7FoSKEVLV6cG5RMvymCvo/UaVGFoAkKJEHI+Cgn0wYUjmQjfRpUeYQUHn6JxjqhL5gV6zaop2p+qh62F62MMbkrSkvs/suXwRHhC2xkikTPWvOgHTAjqJh4UAhOLjERVYEwpOoq87JQwDcs4bBhMn/shMCONWWi3N5OB0cpyLCm6IXIwBCdEZiqUOheZQEQN5xy0/x+9tyCNwcsfkfCWbp8pbt85XK7gWYdhjV7heOGdHryq9NgOXi4ipLHmLX+jfI/75n0d8aPHrs3qDR+Ub6K0/f6tN2w7FGZ9qTD561WHG1qQX310dPbOtuy71tVEBzxbBwis9KYvbWNEye3cIKF5FggSQ1fV5XQ7s/DoYP03EvWQevID0S2/CdAt1YeVNV5xX/37QuPRSAiD5C1LCFKZHBBCWSoKdG6YNpMNHQcJ6OpdRrsZBpTJ3Wm/uO008zU1K6TyVJtMq1N7NBSSFwQkISgRiGAihGRVZb3gMf6tnt7zn33UjDSpBlNZ8LMme96ec/vnO873zm/3+/jvk9wv3/uWQBa/canJWGiGII7UZD8dkoIE/2b6M44CuAaj5A805GQekIlsT0S4omdXs+f/28BPLHjpeS62uZjA13Xl397w0Zhy+Z8ZKTF4+L5MbhcBGSopBcWhKDlKpEqpw9b1j1AOUkEgI8q1QKJasCIcwTV9fV47a3jUs43UhqSY+wlPzr0s0/vWwAa/ePZGTmWf2Vnpj+QFJtDMCMGcfF6hIcLOPJKI7q7h2E1jWPThnSUn76C7lujdPwtCIrz4+CLBbAQvvEpAoWegrAQ/GBBkskclzeHcxh/LStH67XrA9kPZ63bv3fPxXsSQIj9u+uTUqZOLE1Zrc/KzIfDocGq1RpU1TaisuxTqqoWpGZYsfnJJXj1t+cw0CfBqPPimR0r0dzjwHhlJZ5HH8LosM+Zi4skBcItQUu1LDQmBiGpqfBTRS6rOofX/1nu3SS6i3d5PeVfKoBw+1ZrRpb2Rrg1buHS9HyMuyywxw8Q+ffg3eNNcjtYvioBuWsW4Y1Xa4mDm2hXQvH9XUtxrr4D5xs6OHxkmF14IXkMNmkIPkKXELnS++XvyxzSJ8KnTkq8X2cLRtSqFZikzvzue2dw4Wxt/2qbOWlna/PEFw5g1dof5H1UU1O9e2epYI+OQWyShGOvt6Kr00mTj+GppwvQ3dOPhg86qc+FICkhAoXrEvCPv1/A6PA0RIMez25/BF0dA/io9WMc+mkJ7YoOfiFAemXn2Rj8s15Do/rM77n1hFL7YrgxSPBj7/6DUvGGdfn79u6p/XyhSF/0mKS5Wbn/xweE7JwknPjbNVy63ChLsMtyouEamUL7DSc1aR/ik6KRnByHhvpm2YGw0CgsXxGLliu9GOxn9GVFmtGB0hQnpZCTHCUI4xOUANjpgPNs3Nj9XkJyRDj8jCioTQbZ7TAlJGBiYhI7fnlEejLMVvRcW8v7/4U6bdXD2j5WuusZo7NfhGPIgt7eDoRHGDE84qAJGVUEYUGEnnqvgdKJwIBeIkYThGh7JAYHRwhlmOkzU0hKDIFn3ILI3nbsFNoQLvbJKyvwirMx7FQdV1CJjLH4mUZW0KjRI2zxYlnZHiWc9eIfX3Nv97ttWxT94zNoRcLgW2vXrDT6pqhieG0YcjTC7SUArV0MnTaYMBZrIT5afRN0eitxSi0MJuaWwdBqCMZqJmE28BWAARMjAsb9k5CSQ2HefwhjGmFG4VRX3a84q46qeZVgeKccSjoxKl0WHWv8cGLyT1uArXcNICreXBgVGUerPkp7KCE7Jx7nL04TiXWQ01qsyE2hkieiteUWxsb8SExMQHJaCC7Ud9F3nFQWDVShUtF8pQujQ+OUQmZiCAT8bzsh0LkQxSly1n1X5/2zHNdSKvn83sDZYIQ96YKG3uWmxOEPb7z9rXkFir6OW7bEkigkpUbiL8caUX2aUJZgwq7duejo6ENdzQ0KJAibi/OoMfhx5mQz+vtN5LgNT23LxeWPO3Gupg2CTkJxSS4GuyV4PzwF3eHfE2EgwuHzQ8+HlDNAxf2KHscjC3+cHWogHg6MyyztgLRgAcIWRWP65GnbvGcgu3DT9L7SPUYChHKeMrFj3MkSGsN2g94gS5w6nV4xnYK4tTKk55QKoe9SYScITxCfHoPhQSjLD14XlUw9vKIgrzbnvqikjOyob9Y5IMbkVX7n5+pqNMiEZ5J8OvirI+7KMxWmu+5AVmpi+8ToUHpmWoq8CiIdSO6c7NwMNZhxWjfH+DNszJyYPphYH5RRvpkOZDDcUqSclqIofuYM3C3/VZMUZsBzXr/aBntaWvu8O/AbvaGkKTH16EuFefB2dcE/OAhxfJy4pig7JTuuOs96ruI4P/MI1VTBk42f5drOAqg/8Mzpw+BfLp3eQCVih72BlecguBpJ9P9LVis04eEwxMbiwPtVyG5v2/as1/P2vH1gb3R8bXphwZq86IXwcAAul0yAtfQ5LTkzdxd41XXye5kVysyQ3mnonaCVZWeRmpePzoufwJyOM5J2QW5Y3ANEZScofThtfGow/HuuikYi53S+9JGRqOruRdups2df7r356Od24u/tLr267MH01LxVObLAzSsVQHSaALu8I21k4/cKtdWoBFGYe5mkStB3duEZ49KpSHOCumDUC2rrGnCxueXa0d8dTvvCWKh0ycMVYQ9lFhXnZMHtdMI75oJItVjDUrXEsQiBCRSntTrF+ZncF+YQ0dlXyiqU4JVXKTaPkgzwaOdMVCxsITCEheGdhksYbvqk8nDTpcf/ZzT6pt6wpExjaPhO0WPG/Igw+AiXiMPDVJcnqS575WA0LF+pq35HAOr9njrH7AD4DfMCGchxrrO0YrHIJVNLKVM94MDxivfcG0XP8u2z7rC+FB/4+cu/Xn+quvadosIC49r81fIhU1fvDiI9Z4QwWwQQ5sBp+c5xZqcEpRjocLK6DhWnqtzfzM97Yt/zPyy/p4zslUO/sPbcHjha19S8ccPaAu36Rx+h3BVllZfBmSTK6zoz/ieKgLChEQLVSd4lpSDwuao4U4Oyk1X+lQ89WB63aOG2537ywsRXwonf1Bnybgqag5c1ulx7QoIhMy4OMSGE54OtCKWmt8BqlsMYnpzCiMeD22OT6BkZxSednei52eHJEr0fJEjige0+T+1Xxolpu7kL8iWuhcys/KmDkcygmE4xzSyZXVTMp5hHMS6srMdMkfEd4cR8+szXVlb5Ny2OOgnabw7BAAAAAElFTkSuQmCC;" parent="1" vertex="1">
          <mxGeometry x="185" y="457" width="20" height="20" as="geometry" />
        </mxCell>
        <mxCell id="dMD69vR6-e3nc01jPf0l-34" value="&lt;div style=&quot;&quot;&gt;&lt;span style=&quot;background-color: transparent; color: light-dark(rgb(0, 0, 0), rgb(255, 255, 255)); text-wrap: nowrap;&quot;&gt;Underdocx&lt;/span&gt;&lt;/div&gt;" style="text;whiteSpace=wrap;html=1;align=center;" parent="1" vertex="1">
          <mxGeometry x="405" y="600" width="70" height="30" as="geometry" />
        </mxCell>
        <mxCell id="dMD69vR6-e3nc01jPf0l-38" style="edgeStyle=orthogonalEdgeStyle;rounded=0;orthogonalLoop=1;jettySize=auto;html=1;entryX=0;entryY=0.5;entryDx=0;entryDy=0;entryPerimeter=0;exitX=0.75;exitY=0;exitDx=0;exitDy=0;" parent="1" source="VwH9SdVSL0BFMo1bXLVh-31" edge="1">
          <mxGeometry relative="1" as="geometry">
            <mxPoint x="490" y="610" as="sourcePoint" />
            <Array as="points">
              <mxPoint x="460" y="495" />
            </Array>
            <mxPoint x="561.29" y="495" as="targetPoint" />
          </mxGeometry>
        </mxCell>
        <mxCell id="dMD69vR6-e3nc01jPf0l-39" style="edgeStyle=orthogonalEdgeStyle;rounded=0;orthogonalLoop=1;jettySize=auto;html=1;entryX=0;entryY=0.5;entryDx=0;entryDy=0;entryPerimeter=0;exitX=1;exitY=0.5;exitDx=0;exitDy=0;" parent="1" source="VwH9SdVSL0BFMo1bXLVh-31" edge="1">
          <mxGeometry relative="1" as="geometry">
            <mxPoint x="480" y="620" as="sourcePoint" />
            <Array as="points">
              <mxPoint x="480" y="615" />
            </Array>
            <mxPoint x="561.29" y="615" as="targetPoint" />
          </mxGeometry>
        </mxCell>
        <mxCell id="dMD69vR6-e3nc01jPf0l-40" value="" style="shape=image;verticalLabelPosition=bottom;labelBackgroundColor=default;verticalAlign=top;aspect=fixed;imageAspect=0;image=data:image/png,iVBORw0KGgoAAAANSUhEUgAAADAAAAAwCAYAAAEgBckRAAAACXBIWXMAAAsTAAALEwEAmpwYAAAKT2lDQ1BQaG90b3Nob3AgSUNDIHByb2ZpbGUAAHjanVNnVFPpFj333vRCS4iAlEtvUhUIIFJCi4AUkSYqIQkQSoghodkVUcERRUUEG8igiAOOjoCMFVEsDIoK2AfkIaKOg6OIisr74Xuja9a89+bN/rXXPues852zzwfACAyWSDNRNYAMqUIeEeCDx8TG4eQuQIEKJHAAEAizZCFz/SMBAPh+PDwrIsAHvgABeNMLCADATZvAMByH/w/qQplcAYCEAcB0kThLCIAUAEB6jkKmAEBGAYCdmCZTAKAEAGDLY2LjAFAtAGAnf+bTAICd+Jl7AQBblCEVAaCRACATZYhEAGg7AKzPVopFAFgwABRmS8Q5ANgtADBJV2ZIALC3AMDOEAuyAAgMADBRiIUpAAR7AGDIIyN4AISZABRG8lc88SuuEOcqAAB4mbI8uSQ5RYFbCC1xB1dXLh4ozkkXKxQ2YQJhmkAuwnmZGTKBNA/g88wAAKCRFRHgg/P9eM4Ors7ONo62Dl8t6r8G/yJiYuP+5c+rcEAAAOF0ftH+LC+zGoA7BoBt/qIl7gRoXgugdfeLZrIPQLUAoOnaV/Nw+H48PEWhkLnZ2eXk5NhKxEJbYcpXff5nwl/AV/1s+X48/Pf14L7iJIEyXYFHBPjgwsz0TKUcz5IJhGLc5o9H/LcL//wd0yLESWK5WCoU41EScY5EmozzMqUiiUKSKcUl0v9k4t8s+wM+3zUAsGo+AXuRLahdYwP2SycQWHTA4vcAAPK7b8HUKAgDgGiD4c93/+8//UegJQCAZkmScQAAXkQkLlTKsz/HCAAARKCBKrBBG/TBGCzABhzBBdzBC/xgNoRCJMTCQhBCCmSAHHJgKayCQiiGzbAdKmAv1EAdNMBRaIaTcA4uwlW4Dj1wD/phCJ7BKLyBCQRByAgTYSHaiAFiilgjjggXmYX4IcFIBBKLJCDJiBRRIkuRNUgxUopUIFVIHfI9cgI5h1xGupE7yAAygvyGvEcxlIGyUT3UDLVDuag3GoRGogvQZHQxmo8WoJvQcrQaPYw2oefQq2gP2o8+Q8cwwOgYBzPEbDAuxsNCsTgsCZNjy7EirAyrxhqwVqwDu4n1Y8+xdwQSgUXACTYEd0IgYR5BSFhMWE7YSKggHCQ0EdoJNwkDhFHCJyKTqEu0JroR+cQYYjIxh1hILCPWEo8TLxB7iEPENyQSiUMyJ7mQAkmxpFTSEtJG0m5SI+ksqZs0SBojk8naZGuyBzmULCAryIXkneTD5DPkG+Qh8lsKnWJAcaT4U+IoUspqShnlEOU05QZlmDJBVaOaUt2ooVQRNY9aQq2htlKvUYeoEzR1mjnNgxZJS6WtopXTGmgXaPdpr+h0uhHdlR5Ol9BX0svpR+iX6AP0dwwNhhWDx4hnKBmbGAcYZxl3GK+YTKYZ04sZx1QwNzHrmOeZD5lvVVgqtip8FZHKCpVKlSaVGyovVKmqpqreqgtV81XLVI+pXlN9rkZVM1PjqQnUlqtVqp1Q61MbU2epO6iHqmeob1Q/pH5Z/YkGWcNMw09DpFGgsV/jvMYgC2MZs3gsIWsNq4Z1gTXEJrHN2Xx2KruY/R27iz2qqaE5QzNKM1ezUvOUZj8H45hx+Jx0TgnnKKeX836K3hTvKeIpG6Y0TLkxZVxrqpaXllirSKtRq0frvTau7aedpr1Fu1n7gQ5Bx0onXCdHZ4/OBZ3nU9lT3acKpxZNPTr1ri6qa6UbobtEd79up+6Ynr5egJ5Mb6feeb3n+hx9L/1U/W36p/VHDFgGswwkBtsMzhg8xTVxbzwdL8fb8VFDXcNAQ6VhlWGX4YSRudE8o9VGjUYPjGnGXOMk423GbcajJgYmISZLTepN7ppSTbmmKaY7TDtMx83MzaLN1pk1mz0x1zLnm+eb15vft2BaeFostqi2uGVJsuRaplnutrxuhVo5WaVYVVpds0atna0l1rutu6cRp7lOk06rntZnw7Dxtsm2qbcZsOXYBtuutm22fWFnYhdnt8Wuw+6TvZN9un2N/T0HDYfZDqsdWh1+c7RyFDpWOt6azpzuP33F9JbpL2dYzxDP2DPjthPLKcRpnVOb00dnF2e5c4PziIuJS4LLLpc+Lpsbxt3IveRKdPVxXeF60vWdm7Obwu2o26/uNu5p7ofcn8w0nymeWTNz0MPIQ+BR5dE/C5+VMGvfrH5PQ0+BZ7XnIy9jL5FXrdewt6V3qvdh7xc+9j5yn+M+4zw33jLeWV/MN8C3yLfLT8Nvnl+F30N/I/9k/3r/0QCngCUBZwOJgUGBWwL7+Hp8Ib+OPzrbZfay2e1BjKC5QRVBj4KtguXBrSFoyOyQrSH355jOkc5pDoVQfujW0Adh5mGLw34MJ4WHhVeGP45wiFga0TGXNXfR3ENz30T6RJZE3ptnMU85ry1KNSo+qi5qPNo3ujS6P8YuZlnM1VidWElsSxw5LiquNm5svt/87fOH4p3iC+N7F5gvyF1weaHOwvSFpxapLhIsOpZATIhOOJTwQRAqqBaMJfITdyWOCnnCHcJnIi/RNtGI2ENcKh5O8kgqTXqS7JG8NXkkxTOlLOW5hCepkLxMDUzdmzqeFpp2IG0yPTq9MYOSkZBxQqohTZO2Z+pn5mZ2y6xlhbL+xW6Lty8elQfJa7OQrAVZLQq2QqboVFoo1yoHsmdlV2a/zYnKOZarnivN7cyzytuQN5zvn//tEsIS4ZK2pYZLVy0dWOa9rGo5sjxxedsK4xUFK4ZWBqw8uIq2Km3VT6vtV5eufr0mek1rgV7ByoLBtQFr6wtVCuWFfevc1+1dT1gvWd+1YfqGnRs+FYmKrhTbF5cVf9go3HjlG4dvyr+Z3JS0qavEuWTPZtJm6ebeLZ5bDpaql+aXDm4N2dq0Dd9WtO319kXbL5fNKNu7g7ZDuaO/PLi8ZafJzs07P1SkVPRU+lQ27tLdtWHX+G7R7ht7vPY07NXbW7z3/T7JvttVAVVN1WbVZftJ+7P3P66Jqun4lvttXa1ObXHtxwPSA/0HIw6217nU1R3SPVRSj9Yr60cOxx++/p3vdy0NNg1VjZzG4iNwRHnk6fcJ3/ceDTradox7rOEH0x92HWcdL2pCmvKaRptTmvtbYlu6T8w+0dbq3nr8R9sfD5w0PFl5SvNUyWna6YLTk2fyz4ydlZ19fi753GDborZ752PO32oPb++6EHTh0kX/i+c7vDvOXPK4dPKy2+UTV7hXmq86X23qdOo8/pPTT8e7nLuarrlca7nuer21e2b36RueN87d9L158Rb/1tWeOT3dvfN6b/fF9/XfFt1+cif9zsu72Xcn7q28T7xf9EDtQdlD3YfVP1v+3Njv3H9qwHeg89HcR/cGhYPP/pH1jw9DBY+Zj8uGDYbrnjg+OTniP3L96fynQ89kzyaeF/6i/suuFxYvfvjV69fO0ZjRoZfyl5O/bXyl/erA6xmv28bCxh6+yXgzMV70VvvtwXfcdx3vo98PT+R8IH8o/2j5sfVT0Kf7kxmTk/8EA5jz/GMzLdsAAAAgY0hSTQAAeiUAAICDAAD5/wAAgOkAAHUwAADqYAAAOpgAABdvkl/FRgAADvtJREFUeNpszKEOgmAUBeDvbiQbxY1i8E18MRg8hu+DyejGSCayWQzX8DNn4KSzfWenykx7qX5tjHTGB6eMAtdIFxw3uEcWmNDggDce/1c3LFjx3GCo+2hfXZrLZqj7+AIAAP//YsHvqguM/xm4GRgY+BgYrl0z+a/leJqJxdUv7OzufAaGuVsZGH4JMDBkBp1hZGBgYGDZLbbakOECA0NKDcSITH0GBm5t6TcsTAvZrP7l/Dr+v42BYe4ZBgaG/QwM5QXpIiwNtdUnTGY1fDkT+p8nWY6BgamR5UxDHQMDAAAA//9kkLFKQlEAQM993iGyuS0igkRw0HjQIwyHIgdBP0DBwE9oqsDnBf8gHBKCIpoCGxMRSnB4iviuNARu0pCbiw1heRsKF/cznHOWrML2/lO9/JrcjEyFp3fnlUf78O766mX5YVsYpvB2+78sCM5R33IO+s+MqrQGeyaR9iwJ0EuLmZ0CtgALYsdRfE8Tc6L4bQ0BSKx3RP70YiIBzgd8NbaRjIAN8JWGDvgVDR4wBt6hXnuoSYB4Qa1lb9zP+wyrDIEPIAJ0AQPMwbqUvVIxV1g0hE5UULjuCrBDQFaFIYygaX6+z5RSw1Lxj/ulm+xBEorCMPxctRSHCoxsKWgISV0Kam2LIEipwIimKBqyJWoIEbUoKGhoiCaDRqGhpKUgqDmoJa2EJEgCRUPIv0S9Dedyk8oDZzmH53zf977nbehdo6X7fbA0ayvte6L6LxksU/2pRPTO/C9g6rGkMycx08GakFSnh8TVfQcZSXatzDlCx8GwClgHhs4zOzETZaAdaAX0YljyEFo/OoOgpALR+dsxmoEmKBXAYIZsEdpalD+vhYdwl2wff1NCUQUqYo8u2Li+iOBw2ri5jKh3dkOiboY4kAJysDwcgSQsTkQgDXwAr0AMGKlXKSccnbSKEM0MAi9AVglXpl6lquiTJBi9UNgDDHD6DM5OUUWzq0vVthVAc9hsrLnLBYCCW1HpE5wS8C5e9vu8ZrWC3+spaja3+mru8qMIZ51TaWobvQHtH+P8Xs+T5PN1SxqdC1hFIi9XK9NAPBD44b8pK5/QJqIgjP+yJq2JooWiXrRWpQ32INVoDwoi2IuHICIUPIinXhR68CAY3XU3qadCBSP471DbahoLBUEQkXgpioLaCh7UGCQ2KhSThjQxlvzZeHgvaYIxpQvDMsy8/WZnvm/eqrm02sf6v4Bz74Hg7f75viO9MQs2yRJTBu1Ak2xsETrch1NHe/Ztu+W/ll4RoHXH7mRi8lPLZ0MsMDLAerkwmwXbsMhkqcUvU9MbKU4vfn3xBM+dg67g2MhMXYCZIUspcVGonQ3yo+uqrEmeKI+kzFib0MDOTWGCF8Lvek/mwqGpB84agPOn95jDPdJRZJWKsMA4DD3sZvbVe1Bg5B5cv9HN7BvhQ1X+EoTOBjrdfaUzjycDoxWAYceHEkksKFJgLfJdhLFHCpFIBH6LaifGLcLPypys4ClpIClU8PHnr5vAMkA4itnpkPWkJLkXgFZ4apiwNQPfhEKe3S2BPQPfRcVkgUUps4Q4H337OlrTIudz649SV2E7yL4mgD+it8SlPh1Vcyjn5SRApupP5jALS+muGgBDU9sVwzdvDhQ2V6aeldYGtn4omMuEuHwCfC7Zory8kotAClMJNrv0Di+aptWySL+iblF8Vw95duVCg8dYWwnMQX6gjljita7Fb40Zmtqmqw10oKuXXgJ2L6B7ByfOteeP+93Y66pxAVO5b42jrNmvq56YoTVQsqb9G9U07dRKq8AcbRz/S3y1xcYQheHvzG5XUW216xptpEkFdS1LIhGXoIqWolRI3ElJQ8SDaPfSbeLBkz5QdyUSxHWVlK2kJEX14hYJq0G1BFVWF7vT7uyMh/lnd3bbbfDASSY758x/znf+s///ff/5f1z0TwDSs7KnV9fUnbu4R9JPGvOWi9IDAg98+DxQOn45qcP+JK7yrr0s/Y8BFues7HOr6l6z62ZjjD+WRDlktZFAQtJHZt71sYdZxNxH9qnijuL4C5XXryz7LYBpc+Zl7l1058qlAjdDCzFp7xCKZgEaGT+2ilWeQPaY6emtT2+X67sFmDkvM/XA4nJbShJlbjQt3DMEACo2pUx+eu5G/KRZC501t2x9wwKsSa2qS4kjfulD/K9+IkJmCOSNKHNRTenV2GlzF167c8O2oBPAqCkzHM92Ohk8xDnKYlp616j6jMRG+W8U269Ayfbn87v04GTW7WF4D6AfLaDwuwYoLQGWrgOi+stjhw4Cy3OA2KiAZkAj/46MbkDOhtz6s0dLJvgBZmcsWl2RptqVFPx+4JoBHb1rsSlPHjpWaoAo1SJ3Yxf2IjB5yKvxQR5ED0go9ht4VQKvSCKAQycTsWlLk1+PjxxNRO66JtlGsfPJ82Y6K3xBAA/q63VIpJH2EBARcDgcmDDcJX8TqD+a+jxphouE6iswerBfSGWAT68dbjiJMb/TJJ5C0Ae4XC5szqIFdHJ/Qzb1PTTHRSLVCnDf/HWHDCDxHS2yOJKrvEqdtID0iNx3Ub9ZtWsPqVkb2buBhpfwJasB4gcPug80jPDHlicQFWBU1vaS9Rg6WkxJMmUzbQGQrXVotwcd0ZuX67GarUEcnR3xDjiKDi/RRaSqLvKpvP1JXpAuV7zXfu6UB9xpbWuQHgvybsreAa3NwNo0ymat/K3XNsBdTEHRrtLvDoAxbkUQgNVqBThNGtqEesQEIgA+ICMWMH0A2A5VdnKA9zDV6l7ygkKU269tsZjzq7sox3c/5qxFD8U8YWIQHQqANRmw7qNLPS9fOfA8UJsqbaUNbnDc0LBkZzEZDcxa1CTlCQmdiL2RnjCtoBz8mWbdHIsx39OtHhSajImctaiWXyak6gaojqubNvE8+/HwU4TBYsx/8VuKZjEZDZFFexIg+urEVYLeH10hLa8Mnv2NETaLqWBF5p9qsiS0uwFMZacQwzTaXQDGQYIegEdiaGQSLkiiYAe8TrPZHFlYWMiHBQhTE30J3Bax5G+ril/MWntQVFUc/u7dZVdZQMYUlQnNB+hYlpiTDwgf+UJ5jO8nY6hMlNo4ZuNEPJZd0X/MNHzgowCBRtI0RDR6mgoNhUZg+CAFQYk3KCzL7t17b3/sWffcy66Ro9mZ+c3CPbOH853H7/d93+Wp86JnSov+TZsVvnB1a0tbsKGry6fD0DmQ4y3qro5Od4EF3N092lVqlcnTw73OQ6Op6dfX89yJzPT0ZwYgdNGyUddvVuxrMXAT8hNuu473NzDf7JJWZonKY+BB6sMwUmCXovpo2tWK0eKSBJ/Ovr1dinyHD16fmrLv+lMDMCMk/LUrJWVZu9d1DMvd0sjCnXybI8Wji9JWtnwuBwOKIbDASy+XM+U55RqImA4jrv2UUyK8s0N12/9Fv5WZnx785YkAmDIzOOz3isqMwpgbHqMTSeZsJgVGReqDioSLAwAKimNBRnF4O7+FAEyZWMj+cRojKiuai8a+EfJgpHf/iOyM1NOPBSB88XL3K6XlZcfWlA4J0Nu9xIeTpkMOwMXB6jMU2xSpMiJQQMzWz6EDylCSUeZRdjUgJ2BW2B3foc+PSTu4v73HAKbNDpl6427Td7X7SxWoI16aRnZElDJaTAOwUWT2EUeIonQSFsyQ6t4GjPEuQMEBDAmMiWydvzRixqnsjPP/CCBoZvDcOw0dZ2p3FTEoJyvsJqXZEg6vpCarcBCMbBdsq297zsvYNk/G4wmQVuBSYqri9fioH8IWLAs5ffLYWacAlq5araoymXKqt16yrjoo30i+iow0iouBle/7geM4ZKVUYlKQ1HMqLAQi11r7j6ZWIjCQTJIGwjiJJuDiu4cxbc/anMioaE3q4RSzQwBKtz4X9GNOsWimpmpjjCqy3bRios7w0ZN+8Pb2hsFgwKE0AyYFNkgMsKws34f9R44YEDi5QToGqPF5dO/rArN5/Pfs2cYV5wFMdgjgWmXtKx/3axdhoh5ytN9BXTpeCujir0a0m2pgsVjQ2sQ9dLshWAEUXOpCh1HWT49loS6ymVImtjABE0xV4p479/ydHqFb5b9xXqFQy90lqIn6VlNK3I38TsTC9NE1+OQrJURRxPolvDXNUrUgaGINDqRZ+6MjeCv95mUZyAy7FrOJDRPRAkbAiwV7+Uox5xSAoaX5vrkNGpVactrtPlwv6o+YCBDymRQB8KIFYIFtbxHX0cV+uXVvA6LJKlP1G4gCEsjYFjIODcBIABjthdJSC/FB/b37TgEwDHMzvRT9o2ZCLbXKqKMkUivH243GXipgdyS5KyCeLFXQPFkg+T0qC7VK359IdsBMrb7RfoTSCsCx0vQiBTA7OPhEXH72uCgI6u5+H+WGctS2q8hzF6qgqajVVzpJowKZuCA7QmaKntC7zQEf3GaNoeFh2U4BnDn++QFWeWLSljxh0c55TsxRC3XhyMRXZwFzfIDlU8jE5QVNRiUy84H8W0DGOtkF5mS7QT3bmAtjs1GRczIr/ZBTADqdDoLFvI5RqrxMuVyQU4eXBmIC0hcCG78FVmwGpg8C1owFZo8E+g2wTryxCcivAD67DPx4F1g/C8iIIFa0QJktXHd+ZJNme6tcLogWc7ROp5MIpG6VWKfTmRPjY+do9dtSfj5uWVm8WHR7tJUMoBFIfhVIXgDcaAUyioCdXwBX64g7NxCYOw7YvwEY9ZzVW0c1lYYF2c/dBKsyKzE+Nlqn0/WczGnjYqO1+u0fscn81zEjLN4Sc99R463vKEcC2OZnjW6tjkQPWuw5dG3/U1kLRjFHGxdT8Vh0mnxxuFafFJCULGS++YLFKzUUrk9TIkbmojOtStnAMOwqbfyHBU9E0JA3IEO1+qTe6XvFHRDExeGDLZ6nQuEqsZUfp/HA/Fx05lQr28AyXwLM1sR4qXnyxCQlcWU2kQCr3z4WorBJhDh1gKvQZ3xfQTVPA0XQICh8vcDajBlzPYSKBggX/gKfZwBf3MKa6zvZ+wyY82DY3dq4mBL//0oTJ1j/tUFDSEQngF0A9tW3Q5XXDlUeoES5RA3QLIrkLsEMCGaR1N2EhAQfMpbBmT/TIwCO/BsHfo6NqTT/H2yVvwcAiNrzjW+5S2kAAAAASUVORK5CYII=;" parent="1" vertex="1">
          <mxGeometry x="185" y="697" width="20" height="20" as="geometry" />
        </mxCell>
        <mxCell id="FyN0dmnFIEV0YTmz_IIj-1" value="" style="shape=image;verticalLabelPosition=bottom;labelBackgroundColor=default;verticalAlign=top;aspect=fixed;imageAspect=0;image=https://upload.wikimedia.org/wikipedia/commons/thumb/7/7c/Go-home.svg/240px-Go-home.svg.png;" vertex="1" parent="1">
          <mxGeometry x="290" y="720" width="20" height="20" as="geometry" />
        </mxCell>
        <mxCell id="FyN0dmnFIEV0YTmz_IIj-2" value="&lt;font style=&quot;font-size: 8px;&quot;&gt;${$house}&lt;/font&gt;" style="text;html=1;align=center;verticalAlign=middle;whiteSpace=wrap;rounded=0;" vertex="1" parent="1">
          <mxGeometry x="280" y="740" width="40" height="10" as="geometry" />
        </mxCell>
        <mxCell id="FyN0dmnFIEV0YTmz_IIj-5" value="" style="shape=note;whiteSpace=wrap;html=1;backgroundOutline=1;darkOpacity=0.05;size=10;" vertex="1" parent="1">
          <mxGeometry x="561.29" y="470" width="40" height="50" as="geometry" />
        </mxCell>
        <mxCell id="FyN0dmnFIEV0YTmz_IIj-6" value="" style="shape=image;verticalLabelPosition=bottom;labelBackgroundColor=default;verticalAlign=top;aspect=fixed;imageAspect=0;image=https://upload.wikimedia.org/wikipedia/commons/thumb/7/7c/Go-home.svg/240px-Go-home.svg.png;" vertex="1" parent="1">
          <mxGeometry x="571.29" y="480" width="20" height="20" as="geometry" />
        </mxCell>
        <mxCell id="FyN0dmnFIEV0YTmz_IIj-7" value="&lt;font style=&quot;font-size: 8px;&quot;&gt;House&lt;/font&gt;" style="text;html=1;align=center;verticalAlign=middle;whiteSpace=wrap;rounded=0;" vertex="1" parent="1">
          <mxGeometry x="561.29" y="500" width="40" height="10" as="geometry" />
        </mxCell>
        <mxCell id="FyN0dmnFIEV0YTmz_IIj-8" value="" style="shape=note;whiteSpace=wrap;html=1;backgroundOutline=1;darkOpacity=0.05;size=10;" vertex="1" parent="1">
          <mxGeometry x="561.29" y="590" width="40" height="50" as="geometry" />
        </mxCell>
        <mxCell id="FyN0dmnFIEV0YTmz_IIj-9" value="" style="shape=image;verticalLabelPosition=bottom;labelBackgroundColor=default;verticalAlign=top;aspect=fixed;imageAspect=0;image=https://upload.wikimedia.org/wikipedia/commons/thumb/7/7c/Go-home.svg/240px-Go-home.svg.png;" vertex="1" parent="1">
          <mxGeometry x="571.29" y="600" width="20" height="20" as="geometry" />
        </mxCell>
        <mxCell id="FyN0dmnFIEV0YTmz_IIj-10" value="&lt;font style=&quot;font-size: 8px;&quot;&gt;Haus&lt;/font&gt;" style="text;html=1;align=center;verticalAlign=middle;whiteSpace=wrap;rounded=0;" vertex="1" parent="1">
          <mxGeometry x="561.29" y="620" width="40" height="10" as="geometry" />
        </mxCell>
      </root>
    </mxGraphModel>
  </diagram>
</mxfile>
